<?xml version="1.0" encoding="utf-8"?>
<!-- Generator: Adobe Illustrator 21.0.2, SVG Export Plug-In . SVG Version: 6.00 Build 0)  -->
<svg version="1.1" id="Layer_1" xmlns="http://www.w3.org/2000/svg" xmlns:xlink="http://www.w3.org/1999/xlink" x="0px" y="0px"
	 viewBox="0 0 20 20" style="enable-background:new 0 0 20 20;" xml:space="preserve">
<style type="text/css">
	.st0{fill:#111111;}
</style>
<path class="st0" d="M18,1c0.6,0,1,0.4,1,1v12c0,0.6-0.4,1-1,1h-5h-0.5l-0.3,0.4L10,18.3l-2.2-2.9L7.5,15H7H2c-0.6,0-1-0.4-1-1V2
	c0-0.6,0.4-1,1-1H18 M18,0H2C0.9,0,0,0.9,0,2v12c0,1.1,0.9,2,2,2h5l3,4l3-4h5c1.1,0,2-0.9,2-2V2C20,0.9,19.1,0,18,0L18,0z"/>
</svg>
