<?xml version="1.0" encoding="UTF-8"?>
<svg width="39px" height="39px" viewBox="0 0 39 39" version="1.1" xmlns="http://www.w3.org/2000/svg" xmlns:xlink="http://www.w3.org/1999/xlink">
    <!-- Generator: Sketch 48.1 (47250) - http://www.bohemiancoding.com/sketch -->
    <title>new-tooltip-icon--add</title>
    <desc>Created with Sketch.</desc>
    <defs>
        <linearGradient x1="50%" y1="100%" x2="50%" y2="3.061617e-15%" id="linearGradient-1">
            <stop stop-color="#F8F8F8" offset="0%"></stop>
            <stop stop-color="#FFFFFF" offset="100%"></stop>
        </linearGradient>
    </defs>
    <g id="Symbols" stroke="none" stroke-width="1" fill="none" fill-rule="evenodd">
        <g id="new-tooltip-icon--add">
            <rect id="Rectangle" fill="url(#linearGradient-1)" x="7" y="7" width="25" height="25" rx="2.5999999"></rect>
            <path d="M18,18 L15,18 C14.4477153,18 14,18.4477153 14,19 L14,20 C14,20.5522847 14.4477153,21 15,21 L18,21 L18,24 C18,24.5522847 18.4477153,25 19,25 L20,25 C20.5522847,25 21,24.5522847 21,24 L21,21 L24,21 C24.5522847,21 25,20.5522847 25,20 L25,19 C25,18.4477153 24.5522847,18 24,18 L21,18 L21,15 C21,14.4477153 20.5522847,14 20,14 L19,14 C18.4477153,14 18,14.4477153 18,15 L18,18 Z" id="Combined-Shape" fill="#F66969"></path>
        </g>
    </g>
</svg>