<?xml version="1.0" encoding="UTF-8"?>
<svg width="39px" height="39px" viewBox="0 0 39 39" version="1.1" xmlns="http://www.w3.org/2000/svg" xmlns:xlink="http://www.w3.org/1999/xlink">
    <!-- Generator: Sketch 48.1 (47250) - http://www.bohemiancoding.com/sketch -->
    <title>new-announcements-icon--add</title>
    <desc>Created with Sketch.</desc>
    <defs></defs>
    <g id="Symbols" stroke="none" stroke-width="1" fill="none" fill-rule="evenodd">
        <g id="new-announcements-icon--add">
            <path d="M21.0282417,5.11033256 L32.7131343,13.599904 C33.6244016,14.2619785 34.0057128,15.4355335 33.6576396,16.5067924 L29.1944078,30.2432076 C28.8463347,31.3144665 27.8480491,32.0397634 26.7216608,32.0397634 L12.2783392,32.0397634 C11.1519509,32.0397634 10.1536653,31.3144665 9.80559222,30.2432076 L5.34236037,16.5067924 C4.99428725,15.4355335 5.37559839,14.2619785 6.28686565,13.599904 L17.9717583,5.11033256 C18.8830256,4.44825814 20.1169744,4.44825814 21.0282417,5.11033256 Z" id="Polygon" fill="#FFFFFF"></path>
            <path d="M18,18 L15,18 C14.4477153,18 14,18.4477153 14,19 L14,20 C14,20.5522847 14.4477153,21 15,21 L18,21 L18,24 C18,24.5522847 18.4477153,25 19,25 L20,25 C20.5522847,25 21,24.5522847 21,24 L21,21 L24,21 C24.5522847,21 25,20.5522847 25,20 L25,19 C25,18.4477153 24.5522847,18 24,18 L21,18 L21,15 C21,14.4477153 20.5522847,14 20,14 L19,14 C18.4477153,14 18,14.4477153 18,15 L18,18 Z" id="Combined-Shape" fill="#A86BE5"></path>
        </g>
    </g>
</svg>