<?xml version="1.0" encoding="UTF-8"?>
<svg width="24px" height="24px" viewBox="0 0 24 24" version="1.1" xmlns="http://www.w3.org/2000/svg" xmlns:xlink="http://www.w3.org/1999/xlink">
    <!-- Generator: Sketch 48.1 (47250) - http://www.bohemiancoding.com/sketch -->
    <title>player/list-icon--workflow</title>
    <desc>Created with Sketch.</desc>
    <defs></defs>
    <g id="Symbols" stroke="none" stroke-width="1" fill="none" fill-rule="evenodd">
        <g id="player/list-icon--workflow" fill="#000000" fill-rule="nonzero">
            <path d="M12.3983347,5.1307759 L21.6958611,11.8892053 C22.0153793,12.1214651 22.0960594,12.5832109 21.8760652,12.9205434 C21.8274878,12.9950307 21.7664147,13.0595088 21.6958611,13.1107947 L12.3983347,19.8692241 C12.158458,20.043592 11.841542,20.043592 11.6016653,19.8692241 L2.30413891,13.1107947 C1.98462075,12.8785349 1.90394061,12.4167891 2.12393478,12.0794566 C2.17251225,12.0049693 2.2335853,11.9404912 2.30413891,11.8892053 L11.6016653,5.1307759 C11.841542,4.95640803 12.158458,4.95640803 12.3983347,5.1307759 Z M16,10 L14.387062,10 L13.5633423,13.1687243 L12.5498652,10 L11.4544474,10 L10.4366577,13.1687243 L9.61725067,10 L8,10 L9.72938005,16 L10.9843666,16 L12.0021563,13.0411523 L13.0156334,16 L14.2792453,16 L16,10 Z" id="Combined-Shape"></path>
        </g>
    </g>
</svg>