<?xml version="1.0" encoding="UTF-8"?>
<svg width="37px" height="25px" viewBox="0 0 37 25" version="1.1" xmlns="http://www.w3.org/2000/svg" xmlns:xlink="http://www.w3.org/1999/xlink">
    <!-- Generator: Sketch 46.2 (44496) - http://www.bohemiancoding.com/sketch -->
    <title>new-workflow-icon</title>
    <desc>Created with Sketch.</desc>
    <defs></defs>
    <g id="Symbols" stroke="none" stroke-width="1" fill="none" fill-rule="evenodd">
        <g id="new-workflow-icon" transform="translate(-1.000000, 0.000000)">
            <path d="M20.2015659,0.449721762 L37.2926691,11.4055571 L37.2926691,11.4055571 C37.8971132,11.7930213 38.0730102,12.5971218 37.685546,13.2015659 C37.5844298,13.3593072 37.4504104,13.4933267 37.2926691,13.5944429 L20.2015659,24.5502782 L20.2015659,24.5502782 C19.7740071,24.8243544 19.2259929,24.8243544 18.7984341,24.5502782 L1.70733089,13.5944429 L1.70733089,13.5944429 C1.10288678,13.2069787 0.926989788,12.4028782 1.31445396,11.7984341 C1.41557016,11.6406928 1.54958963,11.5066733 1.70733089,11.4055571 L18.7984341,0.449721762 L18.7984341,0.449721762 C19.2259929,0.175645603 19.7740071,0.175645603 20.2015659,0.449721762 Z" id="Rectangle-24-Copy-8" fill="#FFFFFF"></path>
            <path d="M18,11 L15,11 C14.4477153,11 14,11.4477153 14,12 L14,13 C14,13.5522847 14.4477153,14 15,14 L18,14 L18,17 C18,17.5522847 18.4477153,18 19,18 L20,18 C20.5522847,18 21,17.5522847 21,17 L21,14 L24,14 C24.5522847,14 25,13.5522847 25,13 L25,12 C25,11.4477153 24.5522847,11 24,11 L21,11 L21,8 C21,7.44771525 20.5522847,7 20,7 L19,7 C18.4477153,7 18,7.44771525 18,8 L18,11 Z" id="Combined-Shape" fill="#4A79E2"></path>
        </g>
    </g>
</svg>