<?xml version="1.0" encoding="UTF-8"?>
<svg width="178px" height="42px" viewBox="0 0 178 42" version="1.1" xmlns="http://www.w3.org/2000/svg" xmlns:xlink="http://www.w3.org/1999/xlink">
    <!-- Generator: Sketch 46.2 (44496) - http://www.bohemiancoding.com/sketch -->
    <title>letzNav-logo</title>
    <desc>Created with Sketch.</desc>
    <defs>
        <path d="M1195,271.620053 L1195,240.379947 C1195,238.937548 1195.32065,237.846969 1195.96195,237.108179 C1196.60325,236.369389 1197.46856,236 1198.55789,236 C1199.64723,236 1200.52571,236.364992 1201.19337,237.094987 C1201.86103,237.824982 1202.19485,238.919958 1202.19485,240.379947 L1202.19485,271.620053 C1202.19485,273.080042 1201.85664,274.175018 1201.18019,274.905013 C1200.50375,275.635008 1199.62966,276 1198.55789,276 C1197.5037,276 1196.64718,275.621816 1195.9883,274.865435 C1195.32943,274.109055 1195,273.027272 1195,271.620053 Z M1226.54754,263.124011 L1212.47409,263.124011 C1212.49166,264.759903 1212.8211,266.20228 1213.4624,267.451187 C1214.1037,268.700094 1214.95583,269.641158 1216.01881,270.274406 C1217.08179,270.907655 1218.25457,271.224274 1219.53717,271.224274 C1220.3981,271.224274 1221.18434,271.123132 1221.89592,270.920844 C1222.60751,270.718557 1223.29712,270.401937 1223.96477,269.970976 C1224.63243,269.540015 1225.24737,269.078279 1225.80961,268.585752 C1226.37185,268.093225 1227.10099,267.424806 1227.99705,266.580475 C1228.36602,266.263851 1228.89311,266.105541 1229.57834,266.105541 C1230.31628,266.105541 1230.91365,266.307826 1231.37046,266.712401 C1231.82728,267.116977 1232.05569,267.688651 1232.05569,268.427441 C1232.05569,269.078279 1231.80093,269.839046 1231.2914,270.709763 C1230.78187,271.580479 1230.0132,272.416003 1228.98536,273.216359 C1227.95752,274.016715 1226.66614,274.680736 1225.11121,275.208443 C1223.55627,275.73615 1221.76855,276 1219.74801,276 C1215.12712,276 1211.53412,274.680752 1208.96891,272.042216 C1206.4037,269.403681 1205.12111,265.824121 1205.12111,261.30343 C1205.12111,259.175011 1205.43737,257.200537 1206.06989,255.379947 C1206.7024,253.559358 1207.62481,251.998247 1208.83714,250.69657 C1210.04946,249.394892 1211.54288,248.396661 1213.31745,247.701847 C1215.09201,247.007033 1217.05981,246.659631 1219.22091,246.659631 C1222.0321,246.659631 1224.44354,247.253292 1226.4553,248.440633 C1228.46706,249.627974 1229.97366,251.162699 1230.97514,253.044855 C1231.97663,254.92701 1232.47736,256.844317 1232.47736,258.796834 C1232.47736,260.608628 1231.95906,261.782759 1230.92243,262.319261 C1229.88581,262.855763 1228.42752,263.124011 1226.54754,263.124011 Z M1212.47409,259.034301 L1225.5197,259.034301 C1225.34401,256.571668 1224.68075,254.729118 1223.52992,253.506596 C1222.37909,252.284075 1220.8637,251.672823 1218.98372,251.672823 C1217.19159,251.672823 1215.72013,252.29287 1214.5693,253.532982 C1213.41847,254.773093 1212.72007,256.606848 1212.47409,259.034301 Z M1235.77259,247.345646 L1236.56324,247.345646 L1236.56324,243.01847 C1236.56324,241.857514 1236.59398,240.947233 1236.65548,240.287599 C1236.71697,239.627965 1236.88828,239.060688 1237.16939,238.585752 C1237.45051,238.093225 1237.85462,237.693053 1238.38171,237.385224 C1238.90881,237.077395 1239.4974,236.923483 1240.14748,236.923483 C1241.06112,236.923483 1241.88689,237.266487 1242.62483,237.952507 C1243.11679,238.409853 1243.42865,238.968334 1243.56043,239.627968 C1243.6922,240.287602 1243.75809,241.224268 1243.75809,242.437995 L1243.75809,247.345646 L1246.39356,247.345646 C1247.41262,247.345646 1248.19008,247.587509 1248.72596,248.07124 C1249.26184,248.554972 1249.52978,249.175018 1249.52978,249.931398 C1249.52978,250.898861 1249.14764,251.576075 1248.38335,251.963061 C1247.61906,252.350046 1246.52534,252.543536 1245.10218,252.543536 L1243.75809,252.543536 L1243.75809,265.788918 C1243.75809,266.914693 1243.79762,267.781 1243.87668,268.387863 C1243.95575,268.994726 1244.16658,269.487245 1244.5092,269.865435 C1244.85181,270.243625 1245.40965,270.432718 1246.18273,270.432718 C1246.6044,270.432718 1247.17542,270.35796 1247.89579,270.208443 C1248.61615,270.058926 1249.17838,269.984169 1249.58249,269.984169 C1250.1623,269.984169 1250.685,270.217236 1251.1506,270.683377 C1251.6162,271.149519 1251.849,271.72559 1251.849,272.411609 C1251.849,273.572565 1251.21649,274.460859 1249.95146,275.076517 C1248.68642,275.692175 1246.86796,276 1244.49602,276 C1242.24707,276 1240.54281,275.621816 1239.3832,274.865435 C1238.22358,274.109055 1237.46369,273.062452 1237.10351,271.725594 C1236.74332,270.388736 1236.56324,268.603353 1236.56324,266.369393 L1236.56324,252.543536 L1235.61446,252.543536 C1234.57784,252.543536 1233.7872,252.297276 1233.24253,251.804749 C1232.69787,251.312223 1232.42554,250.687779 1232.42554,249.931398 C1232.42554,249.175018 1232.71104,248.554972 1233.28207,248.07124 C1233.85309,247.587509 1234.68326,247.345646 1235.77259,247.345646 Z M1276.29807,254.970976 L1263.12068,269.720317 L1277.22048,269.720317 C1278.36253,269.720317 1279.22344,269.988564 1279.80325,270.525066 C1280.38306,271.061568 1280.67296,271.751975 1280.67296,272.596306 C1280.67296,273.405457 1280.38745,274.065081 1279.81643,274.575198 C1279.24541,275.085315 1278.3801,275.340369 1277.22048,275.340369 L1257.71795,275.340369 C1256.3475,275.340369 1255.32407,275.04134 1254.64762,274.443272 C1253.97118,273.845204 1253.63297,273.02727 1253.63297,271.989446 C1253.63297,271.373788 1253.87016,270.753741 1254.34454,270.129288 C1254.81893,269.504834 1255.80283,268.357088 1257.29628,266.686016 C1258.87757,264.926992 1260.31389,263.335099 1261.60528,261.91029 C1262.89667,260.485481 1264.0958,259.153041 1265.20271,257.912929 C1266.30961,256.672817 1267.22763,255.621816 1267.95678,254.759894 C1268.68593,253.897973 1269.27013,253.159194 1269.70937,252.543536 L1259.00934,252.543536 C1257.53346,252.543536 1256.41779,252.411611 1255.66228,252.147757 C1254.90678,251.883904 1254.52903,251.1891 1254.52903,250.063325 C1254.52903,249.236583 1254.81453,248.576959 1255.38556,248.084433 C1255.95658,247.591906 1256.76918,247.345646 1257.82337,247.345646 L1274.34781,247.345646 C1275.8764,247.345646 1277.04917,247.569919 1277.86618,248.01847 C1278.68318,248.467021 1279.09167,249.271762 1279.09167,250.432718 C1279.09167,250.819703 1279.01261,251.219875 1278.85448,251.633245 C1278.69635,252.046616 1278.52065,252.385223 1278.32738,252.649077 C1278.13411,252.91293 1277.87057,253.233947 1277.53674,253.612137 C1277.20291,253.990327 1276.79002,254.443269 1276.29807,254.970976 Z M1292.62755,240.69657 L1307.67612,263.493404 L1307.67612,240.485488 C1307.67612,238.990318 1307.99677,237.868957 1308.63807,237.121372 C1309.27937,236.373787 1310.14468,236 1311.23401,236 C1312.35849,236 1313.24576,236.373787 1313.89585,237.121372 C1314.54593,237.868957 1314.87097,238.990318 1314.87097,240.485488 L1314.87097,270.907652 C1314.87097,274.302568 1313.4654,276 1310.65421,276 C1309.95141,276 1309.3189,275.898858 1308.75667,275.69657 C1308.19443,275.494282 1307.66734,275.173265 1307.17538,274.733509 C1306.68342,274.293753 1306.22661,273.779247 1305.80493,273.189974 C1305.38325,272.600701 1304.96158,271.998244 1304.5399,271.382586 L1289.8603,248.849604 L1289.8603,271.514512 C1289.8603,272.992092 1289.51769,274.109055 1288.83246,274.865435 C1288.14723,275.621816 1287.26875,276 1286.19698,276 C1285.09008,276 1284.20281,275.617418 1283.53515,274.852243 C1282.8675,274.087067 1282.53367,272.974502 1282.53367,271.514512 L1282.53367,241.672823 C1282.53367,240.406326 1282.67423,239.412493 1282.95535,238.691293 C1283.28918,237.899732 1283.84262,237.253301 1284.6157,236.751979 C1285.38878,236.250657 1286.22333,236 1287.1194,236 C1287.8222,236 1288.42396,236.114335 1288.9247,236.343008 C1289.42545,236.571681 1289.86469,236.879506 1290.24244,237.266491 C1290.62019,237.653476 1291.00673,238.15479 1291.40205,238.770449 C1291.79737,239.386107 1292.20587,240.028141 1292.62755,240.69657 Z M1338.18447,271.936675 C1336.44504,273.291124 1334.76275,274.306945 1333.13753,274.984169 C1331.51231,275.661393 1329.68946,276 1327.66892,276 C1325.82407,276 1324.20327,275.635008 1322.80646,274.905013 C1321.40965,274.175018 1320.33351,273.185582 1319.578,271.936675 C1318.82249,270.687769 1318.44475,269.333341 1318.44475,267.873351 C1318.44475,265.903244 1319.06847,264.223402 1320.31593,262.833773 C1321.5634,261.444144 1323.27644,260.511876 1325.45511,260.036939 C1325.91193,259.931398 1327.04518,259.693933 1328.85488,259.324538 C1330.66458,258.955143 1332.21511,258.616536 1333.5065,258.308707 C1334.79789,258.000878 1336.19907,257.627091 1337.71008,257.187335 C1337.62223,255.287589 1337.24009,253.893584 1336.56365,253.005277 C1335.88721,252.11697 1334.48603,251.672823 1332.36006,251.672823 C1330.53279,251.672823 1329.15796,251.927878 1328.23554,252.437995 C1327.31312,252.948112 1326.52249,253.713275 1325.86361,254.733509 C1325.20474,255.753743 1324.73914,256.426559 1324.46681,256.751979 C1324.19448,257.077398 1323.61029,257.240106 1322.71422,257.240106 C1321.906,257.240106 1321.20761,256.980653 1320.61901,256.461741 C1320.03042,255.942829 1319.73613,255.278808 1319.73613,254.469657 C1319.73613,253.20316 1320.18416,251.971862 1321.08022,250.775726 C1321.97629,249.579589 1323.37308,248.594551 1325.27063,247.82058 C1327.16818,247.04661 1329.5313,246.659631 1332.36006,246.659631 C1335.52265,246.659631 1338.00876,247.033418 1339.81846,247.781003 C1341.62817,248.528588 1342.90636,249.711513 1343.65308,251.329815 C1344.3998,252.948117 1344.77316,255.094094 1344.77316,257.76781 C1344.77316,259.456473 1344.76877,260.890056 1344.75998,262.068602 C1344.7512,263.247147 1344.73802,264.557601 1344.72045,266 C1344.72045,267.354448 1344.94446,268.766044 1345.3925,270.234828 C1345.84053,271.703613 1346.06454,272.649074 1346.06454,273.07124 C1346.06454,273.81003 1345.71754,274.482847 1345.02353,275.08971 C1344.32952,275.696573 1343.54328,276 1342.66478,276 C1341.92684,276 1341.1977,275.652598 1340.47733,274.957784 C1339.75697,274.262969 1338.99268,273.255943 1338.18447,271.936675 Z M1337.71008,261.514512 C1336.65589,261.901497 1335.12293,262.310464 1333.11117,262.741425 C1331.09942,263.172386 1329.70702,263.489005 1328.93394,263.691293 C1328.16087,263.893581 1327.42294,264.289355 1326.72014,264.878628 C1326.01735,265.467901 1325.66595,266.290232 1325.66595,267.345646 C1325.66595,268.436241 1326.07884,269.364112 1326.90463,270.129288 C1327.73041,270.894463 1328.81095,271.277045 1330.14626,271.277045 C1331.56943,271.277045 1332.88276,270.964823 1334.0863,270.340369 C1335.28984,269.715916 1336.17272,268.911175 1336.73496,267.926121 C1337.38504,266.835527 1337.71008,265.041349 1337.71008,262.543536 L1337.71008,261.514512 Z M1353.99821,251.197889 L1359.82262,267.556728 L1366.09505,250.485488 C1366.58701,249.11345 1367.07017,248.141604 1367.54456,247.569921 C1368.01895,246.998238 1368.73931,246.712401 1369.70565,246.712401 C1370.61929,246.712401 1371.39675,247.020226 1372.03805,247.635884 C1372.67935,248.251542 1373,248.963936 1373,249.773087 C1373,250.089711 1372.9429,250.459101 1372.82869,250.881266 C1372.71449,251.303432 1372.58272,251.699207 1372.43337,252.068602 C1372.28403,252.437997 1372.11272,252.860156 1371.91945,253.335092 L1365.0145,270.485488 C1364.82124,270.978015 1364.57087,271.602459 1364.26339,272.358839 C1363.95592,273.115219 1363.61331,273.761651 1363.23556,274.298153 C1362.8578,274.834655 1362.39221,275.252417 1361.83876,275.551451 C1361.2853,275.850485 1360.61326,276 1359.82262,276 C1358.80356,276 1357.99096,275.766933 1357.3848,275.300792 C1356.77864,274.83465 1356.33061,274.324541 1356.04071,273.770449 C1355.7508,273.216356 1355.26324,272.12138 1354.57802,270.485488 L1347.72578,253.519789 C1347.56765,253.097623 1347.40513,252.675464 1347.23821,252.253298 C1347.0713,251.831132 1346.93074,251.400178 1346.81654,250.960422 C1346.70233,250.520666 1346.64523,250.142482 1346.64523,249.825858 C1346.64523,249.333331 1346.79457,248.845209 1347.09326,248.361478 C1347.39195,247.877746 1347.80484,247.481972 1348.33194,247.174142 C1348.85903,246.866313 1349.43005,246.712401 1350.045,246.712401 C1351.23975,246.712401 1352.06113,247.055406 1352.50917,247.741425 C1352.9572,248.427444 1353.45354,249.579587 1353.99821,251.197889 Z" id="path-1"></path>
        <filter x="-0.6%" y="-2.5%" width="101.1%" height="110.0%" filterUnits="objectBoundingBox" id="filter-2">
            <feOffset dx="0" dy="2" in="SourceAlpha" result="shadowOffsetOuter1"></feOffset>
            <feColorMatrix values="0 0 0 0 0   0 0 0 0 0   0 0 0 0 0  0 0 0 0.2 0" type="matrix" in="shadowOffsetOuter1"></feColorMatrix>
        </filter>
    </defs>
    <g id="Editor-UI" stroke="none" stroke-width="1" fill="none" fill-rule="evenodd">
        <g id="letzNav-login_alt" transform="translate(-1195.000000, -236.000000)">
            <g id="letzNav-logo">
                <use fill="black" fill-opacity="1" filter="url(#filter-2)" xlink:href="#path-1"></use>
                <use fill="#FFFFFF" fill-rule="evenodd" xlink:href="#path-1"></use>
            </g>
        </g>
    </g>
</svg>