<?xml version="1.0" encoding="UTF-8"?>
<svg width="68px" height="66px" viewBox="0 0 68 66" version="1.1" xmlns="http://www.w3.org/2000/svg" xmlns:xlink="http://www.w3.org/1999/xlink">
    <!-- Generator: Sketch 48.1 (47250) - http://www.bohemiancoding.com/sketch -->
    <title>announcements-icon</title>
    <desc>Created with Sketch.</desc>
    <defs>
        <path d="M38.351141,1.70820393 L67.8868936,23.1671843 C69.2888432,24.1857603 69.8754757,25.9912296 69.3399786,27.6393202 L58.058325,62.3606798 C57.5228279,64.0087704 55.987004,65.1246118 54.254099,65.1246118 L17.745901,65.1246118 C16.012996,65.1246118 14.4771721,64.0087704 13.941675,62.3606798 L2.66002137,27.6393202 C2.12452426,25.9912296 2.71115679,24.1857603 4.11310642,23.1671843 L33.648859,1.70820393 C35.0508086,0.689627902 36.9491914,0.689627902 38.351141,1.70820393 Z" id="path-1"></path>
    </defs>
    <g id="letzNav-start" stroke="none" stroke-width="1" fill="none" fill-rule="evenodd" transform="translate(-1169.000000, -471.000000)">
        <g id="announcements-icon" transform="translate(1167.000000, 471.000000)">
            <g id="Group-2">
                <g id="Polygon">
                    <use fill="#FFFFFF" fill-rule="evenodd" xlink:href="#path-1"></use>
                    <path stroke="#EAEAEA" stroke-width="1" d="M38.0572484,2.11271243 C36.8305425,1.2214584 35.1694575,1.2214584 33.9427516,2.11271243 L4.40699905,23.5716928 C3.18029312,24.4629468 2.66698965,26.0427324 3.13554962,27.4848117 L14.4172032,62.2061713 C14.8857632,63.6482506 16.2296091,64.6246118 17.745901,64.6246118 L54.254099,64.6246118 C55.7703909,64.6246118 57.1142368,63.6482506 57.5827968,62.2061713 L68.8644504,27.4848117 C69.3330103,26.0427324 68.8197069,24.4629468 67.593001,23.5716928 L38.0572484,2.11271243 Z"></path>
                </g>
                <path d="M50,51 L42.2536358,51 L40.7643979,46.1372549 L31.2332752,46.1372549 L29.7440372,51 L22,51 L33.0994764,20 L38.9005236,20 L50,51 Z M38.6794648,40.0588235 L36,31.5490196 L33.3182083,40.0588235 L38.6794648,40.0588235 Z" id="A" fill="#A86BE5"></path>
            </g>
        </g>
    </g>
</svg>