<?xml version="1.0" encoding="UTF-8"?>
<svg width="39px" height="39px" viewBox="0 0 39 39" version="1.1" xmlns="http://www.w3.org/2000/svg" xmlns:xlink="http://www.w3.org/1999/xlink">
    <!-- Generator: Sketch 48.1 (47250) - http://www.bohemiancoding.com/sketch -->
    <title>new-launcher-icon--add</title>
    <desc>Created with Sketch.</desc>
    <defs></defs>
    <g id="Symbols" stroke="none" stroke-width="1" fill="none" fill-rule="evenodd">
        <g id="new-launcher-icon--add">
            <path d="M21.7130443,7.58872042 L35.5550951,30.0352894 C36.308804,31.25752 35.9289921,32.8593354 34.7067615,33.6130443 C34.2965172,33.8660282 33.8240273,34 33.3420509,34 L5.65794915,34 C4.2220088,34 3.05794915,32.8359403 3.05794915,31.4 C3.05794915,30.9180236 3.19192091,30.4455337 3.44490489,30.0352894 L17.2869557,7.58872042 C18.0406646,6.36648983 19.64248,5.98667792 20.8647106,6.74038679 C21.2097554,6.9531644 21.5002666,7.24367565 21.7130443,7.58872042 Z" id="Triangle" fill="#FFFFFF"></path>
            <path d="M18,22 L15,22 C14.4477153,22 14,22.4477153 14,23 L14,24 C14,24.5522847 14.4477153,25 15,25 L18,25 L18,28 C18,28.5522847 18.4477153,29 19,29 L20,29 C20.5522847,29 21,28.5522847 21,28 L21,25 L24,25 C24.5522847,25 25,24.5522847 25,24 L25,23 C25,22.4477153 24.5522847,22 24,22 L21,22 L21,19 C21,18.4477153 20.5522847,18 20,18 L19,18 C18.4477153,18 18,18.4477153 18,19 L18,22 Z" id="Combined-Shape" fill="#F6AA69"></path>
        </g>
    </g>
</svg>