<?xml version="1.0" encoding="UTF-8"?>
<svg width="150px" height="60px" viewBox="0 0 150 60" version="1.1" xmlns="http://www.w3.org/2000/svg" xmlns:xlink="http://www.w3.org/1999/xlink">
    <!-- Generator: Sketch 47 (45396) - http://www.bohemiancoding.com/sketch -->
    <title>letznav-logo-caption</title>
    <desc>Created with Sketch.</desc>
    <defs>
        <filter x="-0.7%" y="-1.7%" width="101.3%" height="106.9%" filterUnits="objectBoundingBox" id="filter-1">
            <feOffset dx="0" dy="2" in="SourceAlpha" result="shadowOffsetOuter1"></feOffset>
            <feColorMatrix values="0 0 0 0 0   0 0 0 0 0   0 0 0 0 0  0 0 0 0.2 0" type="matrix" in="shadowOffsetOuter1" result="shadowMatrixOuter1"></feColorMatrix>
            <feMerge>
                <feMergeNode in="shadowMatrixOuter1"></feMergeNode>
                <feMergeNode in="SourceGraphic"></feMergeNode>
            </feMerge>
        </filter>
    </defs>
    <g id="Admin-UI" stroke="none" stroke-width="1" fill="none" fill-rule="evenodd">
        <g id="Group-11" transform="translate(-45.000000, -22.000000)">
            <g id="letznav-logo-caption" filter="url(#filter-1)" transform="translate(45.000000, 22.000000)">
                <path d="M0.842608419,29.8615483 L0.842608419,3.67210797 C0.842608419,2.46290479 1.11117581,1.54864293 1.64831866,0.92929496 C2.18546151,0.30994699 2.91022558,0.000277650123 3.82263261,0.000277650123 C4.73503963,0.000277650123 5.47084072,0.30626045 6.03005793,0.91823523 C6.58927514,1.53021001 6.86887955,2.44815841 6.86887955,3.67210797 L6.86887955,29.8615483 C6.86887955,31.0854979 6.58559613,32.0034463 6.0190208,32.6154211 C5.45244547,33.2273959 4.72032339,33.5333787 3.82263261,33.5333787 C2.93965806,33.5333787 2.22225201,33.2163362 1.67039292,32.5822419 C1.11853383,31.9481475 0.842608419,31.0412587 0.842608419,29.8615483 Z M27.2662284,22.7390823 L15.4785772,22.7390823 C15.4932934,24.1104956 15.7692188,25.3196807 16.3063617,26.3666737 C16.8435045,27.4136667 17.5572316,28.2025862 18.4475643,28.7334559 C19.3378969,29.2643256 20.3201914,29.5297564 21.3944771,29.5297564 C22.1155729,29.5297564 22.7741149,29.444966 23.3701227,29.2753826 C23.9661305,29.1057993 24.5437344,28.8403684 25.1029516,28.4790821 C25.6621688,28.1177958 26.1772296,27.7307091 26.6481493,27.3178105 C27.1190691,26.9049118 27.729784,26.3445578 28.4803124,25.6367315 C28.7893534,25.3712967 29.2308341,25.2385812 29.8047675,25.2385812 C30.4228497,25.2385812 30.9231945,25.4081621 31.3058168,25.7473288 C31.6884391,26.0864956 31.8797473,26.5657457 31.8797473,27.1850937 C31.8797473,27.7307098 31.666365,28.3684811 31.239594,29.098427 C30.812823,29.8283728 30.168997,30.5288153 29.3080968,31.1997756 C28.4471967,31.8707359 27.3655691,32.4274035 26.0631816,32.8697949 C24.7607942,33.3121863 23.263439,33.5333787 21.5710711,33.5333787 C17.7006993,33.5333787 14.6912729,32.4274167 12.5427015,30.2154597 C10.3941301,28.0035027 9.31986055,25.0026593 9.31986055,21.2128396 C9.31986055,19.4285276 9.58474894,17.7732712 10.1145337,16.2470208 C10.6443184,14.7207705 11.4169095,13.4120489 12.4323303,12.3208167 C13.447751,11.2295846 14.6986128,10.3927401 16.1849533,9.81025806 C17.6712938,9.22777604 19.3194882,8.93653939 21.129586,8.93653939 C23.4841848,8.93653939 25.5039588,9.43422226 27.1889685,10.4296029 C28.8739783,11.4249836 30.1358772,12.711586 30.974703,14.2894487 C31.8135288,15.8673113 32.2329354,17.4746427 32.2329354,19.1114909 C32.2329354,20.6303681 31.7988128,21.6146742 30.9305545,22.0644388 C30.0622962,22.5142034 28.8408664,22.7390823 27.2662284,22.7390823 Z M15.4785772,19.310566 L26.4053325,19.310566 C26.2581701,17.2460728 25.7026403,15.7014126 24.7387264,14.6765392 C23.7748126,13.6516658 22.5055557,13.1392367 20.9309177,13.1392367 C19.429861,13.1392367 18.1973942,13.6590389 17.2334803,14.6986587 C16.2695665,15.7382785 15.6846046,17.2755656 15.4785772,19.310566 Z M34.9929559,9.51164535 L35.6551835,9.51164535 L35.6551835,5.88405395 C35.6551835,4.91079285 35.6809366,4.14767912 35.7324434,3.59468986 C35.7839503,3.0417006 35.9274315,2.56613697 36.1628914,2.16798471 C36.3983512,1.75508606 36.7368197,1.41961094 37.178307,1.16154929 C37.6197943,0.903487633 38.112781,0.774458742 38.657282,0.774458742 C39.4225266,0.774458742 40.1141796,1.06200884 40.7322618,1.63711767 C41.1443166,2.02052356 41.405526,2.48871411 41.5158978,3.04170337 C41.6262696,3.59469263 41.6814547,4.3799256 41.6814547,5.39742583 L41.6814547,9.51164535 L43.88888,9.51164535 C44.7424221,9.51164535 45.393606,9.71440504 45.8424514,10.1199305 C46.2912968,10.5254559 46.5157161,11.0452581 46.5157161,11.6793524 C46.5157161,12.4904033 46.1956427,13.0581304 45.5554861,13.3825508 C44.9153296,13.7069712 43.9992572,13.8691789 42.8072416,13.8691789 L41.6814547,13.8691789 L41.6814547,24.9731477 C41.6814547,25.9169161 41.7145657,26.6431644 41.7807888,27.1519145 C41.8470119,27.6606646 42.0236042,28.0735571 42.3105709,28.3906043 C42.5975376,28.7076514 43.0647713,28.8661726 43.712286,28.8661726 C44.0654758,28.8661726 44.5437465,28.8035015 45.1471124,28.6781572 C45.7504784,28.552813 46.2213911,28.4901418 46.5598646,28.4901418 C47.0455006,28.4901418 47.4833023,28.6855284 47.8732827,29.0763075 C48.2632631,29.4670866 48.4582504,29.9500233 48.4582504,30.5251321 C48.4582504,31.4983932 47.9284736,32.2430743 46.8689042,32.7591976 C45.8093347,33.2753209 44.2862265,33.5333787 42.2995338,33.5333787 C40.4158547,33.5333787 38.9884006,33.2163362 38.0171286,32.5822419 C37.0458566,31.9481475 36.4093887,31.0707511 36.1077057,29.9500262 C35.8060228,28.8293013 35.6551835,27.3325661 35.6551835,25.4597758 L35.6551835,13.8691789 L34.8605104,13.8691789 C33.9922521,13.8691789 33.3300311,13.6627327 32.8738276,13.249834 C32.4176241,12.8369354 32.1895258,12.3134468 32.1895258,11.6793524 C32.1895258,11.0452581 32.4286611,10.5254559 32.906939,10.1199305 C33.3852169,9.71440504 34.0805489,9.51164535 34.9929559,9.51164535 Z M68.9363227,15.9041692 L57.8991961,28.2689472 L69.7089216,28.2689472 C70.6654773,28.2689472 71.3865624,28.4938262 71.8721984,28.9435908 C72.3578344,29.3933553 72.6006487,29.9721421 72.6006487,30.6799683 C72.6006487,31.3583018 72.3615134,31.9112828 71.8832355,32.3389278 C71.4049576,32.7665729 70.6801936,32.9803922 69.7089216,32.9803922 L53.3739742,32.9803922 C52.2261073,32.9803922 51.368899,32.7297075 50.8023237,32.2283305 C50.2357483,31.7269536 49.9524649,31.0412572 49.9524649,30.1712208 C49.9524649,29.6550975 50.1511312,29.1352954 50.5484698,28.6117989 C50.9458083,28.0883024 51.7699055,27.1261155 53.0207861,25.7252094 C54.3452479,24.2505713 55.5482827,22.9160439 56.6299265,21.7215871 C57.7115703,20.5271303 58.7159388,19.4101088 59.6430621,18.370489 C60.5701854,17.3308692 61.3390975,16.4497862 61.9498216,15.7272135 C62.5605456,15.0046409 63.0498533,14.3853022 63.4177594,13.8691789 L54.4556126,13.8691789 C53.2194482,13.8691789 52.2849808,13.7585827 51.6521824,13.537387 C51.019384,13.3161913 50.7029895,12.733718 50.7029895,11.7899497 C50.7029895,11.0968698 50.9421249,10.5438889 51.4204028,10.1309902 C51.8986806,9.71809157 52.5792966,9.51164535 53.4622712,9.51164535 L67.302828,9.51164535 C68.5831411,9.51164535 69.5654355,9.69965888 70.2497408,10.0756916 C70.934046,10.4517243 71.2761935,11.126361 71.2761935,12.0996221 C71.2761935,12.4240425 71.2099715,12.7595176 71.0775253,13.1060576 C70.9450791,13.4525975 70.7979189,13.7364611 70.6360402,13.9576568 C70.4741615,14.1788525 70.2534212,14.4479699 69.9738126,14.765017 C69.694204,15.0820642 69.3483775,15.4617778 68.9363227,15.9041692 Z M82.6135854,3.93754149 L95.217984,23.0487547 L95.217984,3.76058581 C95.217984,2.50714349 95.4865514,1.56707585 96.0236943,0.94035469 C96.5608371,0.31363353 97.2856012,0.000277650123 98.1980082,0.000277650123 C99.1398477,0.000277650123 99.8830068,0.31363353 100.427508,0.94035469 C100.972009,1.56707585 101.244255,2.50714349 101.244255,3.76058581 L101.244255,29.2643229 C101.244255,32.1103743 100.066973,33.5333787 97.7123746,33.5333787 C97.1237249,33.5333787 96.5939482,33.4485882 96.1230284,33.2790049 C95.6521086,33.1094215 95.210628,32.8403041 94.7985732,32.4716446 C94.3865184,32.1029851 94.0039019,31.6716599 93.650712,31.1776562 C93.2975222,30.6836524 92.9443377,30.1785965 92.5911479,29.6624732 L80.2957888,10.7724546 L80.2957888,29.7730705 C80.2957888,31.0117664 80.0088264,31.9481475 79.434893,32.5822419 C78.8609595,33.2163362 78.1251584,33.5333787 77.2274676,33.5333787 C76.3003444,33.5333787 75.5571853,33.2126497 74.9979681,32.5711822 C74.4387508,31.9297146 74.1591464,30.9970201 74.1591464,29.7730705 L74.1591464,4.7559615 C74.1591464,3.69422212 74.2768746,2.86106414 74.5123345,2.25646255 C74.7919431,1.59287544 75.2554978,1.05095409 75.9030124,0.630682253 C76.5505271,0.210410417 77.2495381,0.000277650123 78.0000665,0.000277650123 C78.5887162,0.000277650123 79.0927399,0.0961276839 79.5121528,0.287830627 C79.9315658,0.47953357 80.2994663,0.737591353 80.6158655,1.06201172 C80.9322647,1.38643208 81.2560172,1.80669762 81.5871326,2.32282093 C81.9182481,2.83894423 82.2603956,3.37717904 82.6135854,3.93754149 Z M120.771195,30.1269818 C119.314287,31.2624531 117.905228,32.1140438 116.543975,32.6817795 C115.182723,33.2495151 113.655936,33.5333787 111.963568,33.5333787 C110.418362,33.5333787 109.060809,33.2273959 107.890868,32.6154211 C106.720927,32.0034463 105.819571,31.1739748 105.186772,30.1269818 C104.553974,29.0799889 104.237579,27.9445346 104.237579,26.720585 C104.237579,25.0689905 104.759998,23.6607323 105.804851,22.4957682 C106.849704,21.3308042 108.284517,20.5492578 110.109331,20.1511055 C110.491953,20.0626272 111.441136,19.8635541 112.956909,19.5538801 C114.472682,19.2442061 115.771371,18.9603425 116.853015,18.7022809 C117.934659,18.4442192 119.108262,18.1308633 120.373858,17.7622038 C120.300277,16.1695948 119.980204,15.0009617 119.413628,14.2562695 C118.847053,13.5115773 117.67345,13.1392367 115.892785,13.1392367 C114.362296,13.1392367 113.210767,13.3530561 112.438164,13.7807011 C111.665562,14.2083461 111.003341,14.849804 110.451482,15.7050941 C109.899623,16.5603841 109.509648,17.1244247 109.281546,17.3972328 C109.053444,17.6700408 108.564137,17.8064428 107.813608,17.8064428 C107.136661,17.8064428 106.551699,17.5889369 106.058705,17.1539187 C105.565711,16.7189005 105.319218,16.162233 105.319218,15.4838995 C105.319218,14.4221601 105.694476,13.389929 106.445005,12.3871751 C107.195533,11.3844213 108.365457,10.5586364 109.954811,9.90979562 C111.544165,9.26095489 113.52347,8.93653939 115.892785,8.93653939 C118.541709,8.93653939 120.624026,9.24989527 122.139799,9.87661643 C123.655572,10.5033376 124.726162,11.4950168 125.351603,12.8516838 C125.977043,14.2083508 126.289758,16.0073822 126.289758,18.248832 C126.289758,19.6644845 126.286079,20.8662964 126.278721,21.8543039 C126.271363,22.8423114 126.260326,23.9409002 126.24561,25.1501034 C126.24561,26.2855747 126.433239,27.4689539 126.808503,28.7002767 C127.183767,29.9315994 127.371397,30.7242055 127.371397,31.0781186 C127.371397,31.6974666 127.080755,32.2615072 126.499464,32.7702573 C125.918172,33.2790074 125.25963,33.5333787 124.523818,33.5333787 C123.905736,33.5333787 123.295021,33.242142 122.691655,32.65966 C122.088289,32.077178 121.448142,31.2329604 120.771195,30.1269818 Z M120.373858,21.3897952 C119.490884,21.7142156 118.206911,22.0570638 116.521901,22.4183501 C114.836891,22.7796364 113.670647,23.0450673 113.023132,23.2146507 C112.375617,23.384234 111.757545,23.7160226 111.168895,24.2100264 C110.580245,24.7040301 110.285925,25.393413 110.285925,26.2781958 C110.285925,27.1924714 110.631751,27.9703313 111.323415,28.6117989 C112.015078,29.2532664 112.920113,29.5739954 114.038548,29.5739954 C115.230563,29.5739954 116.330586,29.312251 117.338649,28.7887545 C118.346711,28.265258 119.086191,27.5906213 119.557111,26.764824 C120.101612,25.8505484 120.373858,24.3464402 120.373858,22.2524542 L120.373858,21.3897952 Z M134.016486,12.7410865 L138.894896,26.4551515 L144.148568,12.1438611 C144.560623,10.9936434 144.965313,10.1789181 145.362652,9.69966076 C145.759991,9.2204034 146.363347,8.98077831 147.172741,8.98077831 C147.937985,8.98077831 148.589169,9.2388361 149.126312,9.75495941 C149.663455,10.2710827 149.932022,10.8683022 149.932022,11.5466356 C149.932022,11.8120705 149.884195,12.1217398 149.78854,12.475653 C149.692884,12.8295661 149.582514,13.1613547 149.457426,13.4710286 C149.332338,13.7807026 149.188857,14.1346104 149.026978,14.5327627 L143.243524,28.9104116 C143.081645,29.3233102 142.871942,29.8467989 142.614407,30.4808932 C142.356873,31.1149876 142.069911,31.6569089 141.753512,32.1066735 C141.437112,32.5564381 141.047138,32.9066594 140.583576,33.1573478 C140.120015,33.4080363 139.557127,33.5333787 138.894896,33.5333787 C138.041354,33.5333787 137.360738,33.337992 136.853027,32.947213 C136.345317,32.5564339 135.970058,32.1287953 135.72724,31.6642843 C135.484422,31.1997733 135.076053,30.2818249 134.502119,28.9104116 L128.762814,14.6875989 C128.630367,14.3336858 128.494244,13.979778 128.35444,13.6258649 C128.214636,13.2719517 128.096907,12.9106708 128.001252,12.5420113 C127.905596,12.1733518 127.857769,11.8563094 127.857769,11.5908746 C127.857769,11.1779759 127.982855,10.76877 128.233031,10.3632445 C128.483208,9.95771909 128.829034,9.62593051 129.270521,9.36786886 C129.712009,9.10980721 130.190279,8.98077831 130.705348,8.98077831 C131.706052,8.98077831 132.394026,9.26832842 132.76929,9.84343724 C133.144555,10.4185461 133.560282,11.3844195 134.016486,12.7410865 Z" id="letzNav-Copy-2" fill="#FFFFFF"></path>
                <path d="M6.15031181,41.8148489 L6.15031181,46.5326797 C6.15031181,47.3656343 5.87434022,48.0178279 5.32238877,48.4892802 C4.77043732,48.9607324 4.05058373,49.196455 3.16280639,49.196455 C2.26837904,49.196455 1.54353801,48.9607324 0.988261546,48.4892802 C0.432985086,48.0178279 0.155351021,47.3656343 0.155351021,46.5326797 L0.155351021,41.8148489 L1.84610951,41.8148489 L1.84610951,46.5326797 C1.84610951,46.9824752 1.96248307,47.3223155 2.19523369,47.552211 C2.4279843,47.7821064 2.75050531,47.8970524 3.16280639,47.8970524 C3.57178247,47.8970524 3.89014728,47.7829394 4.11791038,47.5547098 C4.34567348,47.3264803 4.45955332,46.985807 4.45955332,46.5326797 L4.45955332,41.8148489 L6.15031181,41.8148489 Z M10.5639803,44.2687206 L11.7609774,41.8148489 L13.7060978,41.8148489 L11.6263152,45.4231898 L13.8656974,49.0915033 L11.8208273,49.0915033 L10.5839302,46.5876545 L9.34703314,49.0915033 L7.40191275,49.0915033 L9.53655769,45.4231898 L7.45677512,41.8148489 L9.38693305,41.8148489 L10.5639803,44.2687206 Z M22.004761,47.1623902 C22.004761,46.9025084 21.9199745,46.7034353 21.7503991,46.5651648 C21.5808236,46.4268944 21.2732649,46.2794636 20.8277137,46.1228682 C19.9266364,45.8296682 19.2574884,45.5173149 18.8202497,45.185799 C18.3830111,44.8542831 18.1643951,44.3770073 18.1643951,43.7539573 C18.1643951,43.1442346 18.4187544,42.6511329 18.9274807,42.2746375 C19.4362071,41.898142 20.0829116,41.7098971 20.8676136,41.7098971 C21.6955408,41.7098971 22.3621951,41.9039726 22.8675964,42.2921294 C23.3729977,42.6802862 23.6173822,43.2275291 23.6007572,43.9338746 L23.5907822,43.9638608 L21.9548861,43.9638608 C21.9548861,43.6206835 21.8617872,43.3716339 21.6755867,43.2167043 C21.4893862,43.0617748 21.2084272,42.9843112 20.8327012,42.9843112 C20.5268004,42.9843112 20.2857409,43.059276 20.1095154,43.2092078 C19.93329,43.3591396 19.8451786,43.5440527 19.8451786,43.7639527 C19.8451786,43.9771891 19.9357837,44.1479422 20.1169967,44.2762172 C20.2982097,44.4044922 20.6365242,44.56525 21.1319505,44.7584955 C21.9731777,45.0083818 22.6099074,45.3132386 23.0421585,45.673075 C23.4744096,46.0329113 23.690532,46.526013 23.690532,47.1523948 C23.690532,47.7921039 23.44116,48.2927021 22.9424087,48.6542043 C22.4436574,49.0157066 21.7819906,49.196455 20.9573884,49.196455 C20.1361113,49.196455 19.4403636,49.0023795 18.8701246,48.6142227 C18.2998856,48.2260659 18.0230828,47.6155194 18.0397078,46.7825648 L18.0496828,46.7525786 L19.6905664,46.7525786 C19.6905664,47.1757195 19.7944714,47.4764116 20.0022844,47.6546639 C20.2100975,47.8329162 20.5284623,47.922041 20.9573884,47.922041 C21.3098394,47.922041 21.5725111,47.8520738 21.7454116,47.7121375 C21.918312,47.5722011 22.004761,47.3889538 22.004761,47.1623902 Z M26.9171782,49.0915033 L25.2264197,49.0915033 L25.2264197,43.6839895 L26.9171782,43.6839895 L26.9171782,49.0915033 Z M26.9171782,42.4295662 L25.2264197,42.4295662 L25.2264197,41.2950878 L26.9171782,41.2950878 L26.9171782,42.4295662 Z M30.1787369,43.6839895 L30.2385867,44.3986609 C30.4081622,44.1387791 30.6217908,43.9380401 30.879479,43.7964378 C31.1371672,43.6548355 31.4322573,43.5840354 31.7647581,43.5840354 C32.100584,43.5840354 32.3898554,43.6573343 32.6325811,43.8039343 C32.8753067,43.9505343 33.0581794,44.1737628 33.1812048,44.4736264 C33.3474552,44.1904219 33.5610838,43.9713581 33.822097,43.8164286 C34.0831102,43.661499 34.3881752,43.5840354 34.7373011,43.5840354 C35.2626525,43.5840354 35.6757786,43.7731133 35.9766919,44.1512746 C36.2776052,44.529436 36.4280596,45.1116625 36.4280596,45.8979716 L36.4280596,49.0915033 L34.7373011,49.0915033 L34.7373011,45.8979716 C34.7373011,45.5114807 34.6832705,45.2457721 34.5752077,45.1008381 C34.4671449,44.955904 34.3050532,44.883438 34.0889276,44.883438 C33.9260022,44.883438 33.7821977,44.912591 33.6575099,44.9708978 C33.5328221,45.0292046 33.4272546,45.11 33.3408044,45.2132864 C33.3408044,45.2699273 33.3424669,45.3190708 33.3457919,45.3607186 C33.3491169,45.4023663 33.3507794,45.4431805 33.3507794,45.4831623 L33.3507794,49.0915033 L31.6650084,49.0915033 L31.6650084,45.8979716 C31.6650084,45.5081488 31.611809,45.2416074 31.5054087,45.0983392 C31.3990085,44.955071 31.234423,44.883438 31.0116474,44.883438 C30.858697,44.883438 30.71988,44.912591 30.5951922,44.9708978 C30.4705043,45.0292046 30.3649369,45.11 30.2784867,45.2132864 L30.2784867,49.0915033 L28.5927156,49.0915033 L28.5927156,43.6839895 L30.1787369,43.6839895 Z M43.0312353,46.5026935 C43.0312353,47.3156571 42.8483626,47.9678508 42.4826116,48.4592939 C42.1168607,48.9507371 41.601492,49.196455 40.9364903,49.196455 C40.6771396,49.196455 40.4468862,49.1464785 40.2457232,49.0465239 C40.0445602,48.9465694 39.8691686,48.8016375 39.7195432,48.6117239 L39.7195432,51.1705474 L38.0337722,51.1705474 L38.0337722,43.6839895 L39.6247809,43.6839895 L39.6746558,44.2737183 C39.8242812,44.0538183 40.0029977,43.8838982 40.2108108,43.7639527 C40.4186238,43.6440073 40.6571896,43.5840354 40.9265153,43.5840354 C41.5948421,43.5840354 42.1127044,43.8422475 42.4801179,44.3586793 C42.8475314,44.8751111 43.0312353,45.5547918 43.0312353,46.3977418 L43.0312353,46.5026935 Z M41.3504518,46.3977418 C41.3504518,45.9412827 41.2839526,45.5747882 41.1509523,45.2982473 C41.0179519,45.0217064 40.8051546,44.883438 40.5125538,44.883438 C40.3230283,44.883438 40.162599,44.9184216 40.0312612,44.9883898 C39.8999233,45.0583579 39.7960184,45.1599769 39.7195432,45.2932496 L39.7195432,47.552211 C39.7993434,47.6688246 39.9049108,47.7554506 40.0362487,47.8120915 C40.1675865,47.8687324 40.3296783,47.8970524 40.5225288,47.8970524 C40.8184546,47.8970524 41.0304207,47.77461 41.1584335,47.5297213 C41.2864464,47.2848327 41.3504518,46.9424935 41.3504518,46.5026935 L41.3504518,46.3977418 Z M46.1830693,49.0915033 L44.4923108,49.0915033 L44.4923108,41.2950878 L46.1830693,41.2950878 L46.1830693,49.0915033 Z M49.6241775,49.0915033 L47.933419,49.0915033 L47.933419,43.6839895 L49.6241775,43.6839895 L49.6241775,49.0915033 Z M49.6241775,42.4295662 L47.933419,42.4295662 L47.933419,41.2950878 L49.6241775,41.2950878 L49.6241775,42.4295662 Z M51.6837515,49.0915033 L51.6837515,44.8534518 L50.9007159,44.8534518 L50.9007159,43.6839895 L51.6837515,43.6839895 L51.6837515,43.424109 C51.6837515,42.7044363 51.9048613,42.1521957 52.3470875,41.7673707 C52.7893136,41.3825457 53.4177309,41.1901361 54.232358,41.1901361 C54.5116587,41.1901361 54.7892928,41.2151243 55.0652685,41.2651016 C55.3412443,41.3150789 55.6488029,41.3867119 55.9879538,41.4800028 L55.7585294,42.8093916 C55.4725786,42.7360916 55.2340128,42.6811174 55.0428248,42.6444674 C54.8516368,42.6078174 54.6147335,42.5894927 54.3321078,42.5894927 C54.022882,42.5894927 53.7851474,42.6619587 53.618897,42.8068927 C53.4526465,42.9518268 53.3695225,43.1575635 53.3695225,43.424109 L53.3695225,43.6839895 L54.42687,43.6839895 L54.42687,44.8534518 L53.3695225,44.8534518 L53.3695225,49.0915033 L51.6837515,49.0915033 Z M56.7610145,49.0915033 L55.070256,49.0915033 L55.070256,43.6839895 L56.7610145,43.6839895 L56.7610145,49.0915033 Z M60.8305463,49.196455 C60.0125941,49.196455 59.3717083,48.9482383 58.9078696,48.4517974 C58.4440309,47.9553565 58.212115,47.3273182 58.212115,46.5676637 L58.212115,46.377751 C58.212115,45.5514601 58.430731,44.8784429 58.8679697,44.3586793 C59.3052083,43.8389157 59.9377817,43.5807036 60.7657089,43.5840354 C61.4938858,43.5840354 62.0582976,43.8022663 62.4589612,44.2387344 C62.8596247,44.6752026 63.0599535,45.273255 63.0599535,46.0329095 L63.0599535,46.9175028 L59.9677108,46.9175028 L59.9577358,46.947489 C59.9843359,47.2306936 60.0890721,47.4597526 60.2719476,47.6346731 C60.4548231,47.8095935 60.7174948,47.8970524 61.0599707,47.8970524 C61.3824966,47.8970524 61.650987,47.8703983 61.8654501,47.8170892 C62.0799131,47.7637801 62.3251288,47.67882 62.6011046,47.5622064 L63.0050911,48.591733 C62.7723405,48.7616558 62.4597944,48.9049218 62.0674433,49.0215354 C61.6750923,49.1381491 61.2627974,49.196455 60.8305463,49.196455 Z M60.7657089,44.883438 C60.4963832,44.883438 60.2977169,44.969231 60.1697041,45.1408197 C60.0416912,45.3124083 59.9677109,45.5447991 59.9477609,45.8379991 L59.9577358,45.8629876 L61.4140824,45.8629876 L61.4140824,45.7330474 C61.4140824,45.4531747 61.3650392,45.2416074 61.2669515,45.0983392 C61.1688637,44.955071 61.0017845,44.883438 60.7657089,44.883438 Z M64.1918547,46.3977418 C64.1918547,45.5547918 64.3755587,44.8751111 64.7429722,44.3586793 C65.1103856,43.8422475 65.628248,43.5840354 66.2965747,43.5840354 C66.5459504,43.5840354 66.7712163,43.6415084 66.9723794,43.7564562 C67.1735424,43.8714039 67.3539214,44.0354935 67.5135218,44.2487298 L67.5135218,41.2950878 L69.1992928,41.2950878 L69.1992928,49.0915033 L67.7229963,49.0915033 L67.6082841,48.4318066 C67.4453587,48.6783611 67.2550048,48.867439 67.0372167,48.9990458 C66.8194286,49.1306526 66.5692255,49.196455 66.2865997,49.196455 C65.621598,49.196455 65.1062294,48.9499042 64.7404784,48.4567951 C64.3747274,47.963686 64.1918547,47.3123253 64.1918547,46.5026935 L64.1918547,46.3977418 Z M65.8776257,46.5026935 C65.8776257,46.9424935 65.9416312,47.2848327 66.069644,47.5297213 C66.1976568,47.77461 66.4129479,47.8970524 66.7155237,47.8970524 C66.8917492,47.8970524 67.047191,47.8645677 67.1818539,47.7995972 C67.3165167,47.7346268 67.4270716,47.6388385 67.5135218,47.5122294 L67.5135218,45.3282335 C67.4270716,45.1849653 67.317348,45.075017 67.1843476,44.9983852 C67.0513473,44.9217533 66.8983992,44.883438 66.7254987,44.883438 C66.4262479,44.883438 66.2101256,45.0217064 66.0771252,45.2982473 C65.9441249,45.5747882 65.8776257,45.9412827 65.8776257,46.3977418 L65.8776257,46.5026935 Z" id="UX-Simplified-Copy-2" fill="#FFFFFF"></path>
                <path d="M77.3644388,42.8366013 L143.190416,42.8366013 L143.190416,42.8366013 C144.757428,42.8366013 146.027743,44.1069157 146.027743,45.6739279 L146.027743,45.6855492 L146.027743,45.6855492 C146.027743,47.2525614 144.757428,48.5228758 143.190416,48.5228758 L132.408575,48.5228758 L132.408575,58 L122.95082,48.5228758 L77.3644388,48.5228758 L77.3644388,48.5228758 C75.7974266,48.5228758 74.5271122,47.2525614 74.5271122,45.6855492 L74.5271122,45.6739279 L74.5271122,45.6739279 C74.5271122,44.1069157 75.7974266,42.8366013 77.3644388,42.8366013 Z" id="Rectangle-15" fill="#00CDB2"></path>
            </g>
        </g>
    </g>
</svg>