<?xml version="1.0" encoding="utf-8"?>
<!-- Generator: Adobe Illustrator 21.0.2, SVG Export Plug-In . SVG Version: 6.00 Build 0)  -->
<svg version="1.1" id="Layer_1" xmlns="http://www.w3.org/2000/svg" xmlns:xlink="http://www.w3.org/1999/xlink" x="0px" y="0px"
	 viewBox="0 0 20 20" style="enable-background:new 0 0 20 20;" xml:space="preserve">
<style type="text/css">
	.st0{fill:#2788B6;}
</style>
<path class="st0" d="M18,1c0.6,0,1,0.4,1,1v12c0,0.6-0.4,1-1,1H8H7.6l-0.3,0.3L5,17.6V16v-1H4H2c-0.6,0-1-0.4-1-1V2c0-0.6,0.4-1,1-1
	H18 M18,0H2C0.9,0,0,0.9,0,2v12c0,1.1,0.9,2,2,2h2v4l4-4h10c1.1,0,2-0.9,2-2V2C20,0.9,19.1,0,18,0L18,0z"/>
</svg>
