<?xml version="1.0" encoding="UTF-8"?>
<svg width="15px" height="15px" viewBox="0 0 15 15" version="1.1" xmlns="http://www.w3.org/2000/svg" xmlns:xlink="http://www.w3.org/1999/xlink">
    <!-- Generator: Sketch 48.1 (47250) - http://www.bohemiancoding.com/sketch -->
    <title>search-bar-icon-w</title>
    <desc>Created with Sketch.</desc>
    <defs></defs>
    <g id="letzNav_player-start-v2--light" stroke="none" stroke-width="1" fill="none" fill-rule="evenodd" transform="translate(-825.000000, -322.000000)">
        <g id="Group-2-Copy-2" transform="translate(530.000000, 260.000000)" fill="#FFFFFF" fill-rule="nonzero">
            <g id="Group-4">
                <g id="sidebar/search-bar-copy" transform="translate(10.000000, 54.000000)">
                    <path d="M297,14 C297,15.1443299 296.679648,16.2138377 296.123734,17.1237341 L300,21 L298,23 L294.123734,19.1237341 C293.213838,19.6796483 292.14433,20 291,20 C287.686292,20 285,17.3137085 285,14 C285,10.6862915 287.686292,8 291,8 C294.313708,8 297,10.6862915 297,14 Z M291,18 C293.209139,18 295,16.209139 295,14 C295,11.790861 293.209139,10 291,10 C288.790861,10 287,11.790861 287,14 C287,16.209139 288.790861,18 291,18 Z" id="search-bar-icon-w"></path>
                </g>
            </g>
        </g>
    </g>
</svg>