<?xml version="1.0" encoding="UTF-8"?>
<svg width="72px" height="60px" viewBox="0 0 72 60" version="1.1" xmlns="http://www.w3.org/2000/svg" xmlns:xlink="http://www.w3.org/1999/xlink">
    <!-- Generator: Sketch 48.1 (47250) - http://www.bohemiancoding.com/sketch -->
    <title>launchers-icon</title>
    <desc>Created with Sketch.</desc>
    <defs>
        <path d="M42.4010606,5.49402095 L74.2204552,56.8945815 C75.3832457,58.7729354 74.803167,61.2382701 72.9248131,62.4010606 C72.2923483,62.7925864 71.5632389,63 70.8193947,63 L7.18060535,63 C4.97146635,63 3.18060535,61.209139 3.18060535,59 C3.18060535,58.2561557 3.38801891,57.5270464 3.77954476,56.8945815 L35.5989394,5.49402095 C36.7617299,3.61566705 39.2270646,3.03558831 41.1054185,4.19837882 C41.6317317,4.52419176 42.0752476,4.96770773 42.4010606,5.49402095 Z" id="path-1"></path>
    </defs>
    <g id="letzNav-start" stroke="none" stroke-width="1" fill="none" fill-rule="evenodd" transform="translate(-1177.000000, -302.000000)">
        <g id="launchers-icon" transform="translate(1174.000000, 299.000000)">
            <g id="Group-2">
                <g id="Triangle">
                    <use fill="#FFFFFF" fill-rule="evenodd" xlink:href="#path-1"></use>
                    <path stroke="#EAEAEA" stroke-width="1" d="M41.975928,5.75719826 C41.6908417,5.29667419 41.3027652,4.90859772 40.8422412,4.62351139 C39.1986815,3.6060697 37.0415137,4.1136386 36.024072,5.75719826 L4.20467733,57.1577588 C3.86209221,57.7111656 3.68060535,58.3491363 3.68060535,59 C3.68060535,60.9329966 5.24760872,62.5 7.18060535,62.5 L70.8193947,62.5 C71.4702584,62.5 72.1082291,62.3185131 72.6616358,61.975928 C74.3051955,60.9584863 74.8127644,58.8013185 73.7953227,57.1577588 L41.975928,5.75719826 Z"></path>
                </g>
                <polygon id="L" fill="#F6AA69" points="52 54 31 54 31 24 38 24 38 47 52 47"></polygon>
            </g>
        </g>
    </g>
</svg>