<?xml version="1.0" encoding="UTF-8"?>
<svg width="24px" height="24px" viewBox="0 0 24 24" version="1.1" xmlns="http://www.w3.org/2000/svg" xmlns:xlink="http://www.w3.org/1999/xlink">
    <!-- Generator: Sketch 48.1 (47250) - http://www.bohemiancoding.com/sketch -->
    <title>player/list-icon-dark--document</title>
    <desc>Created with Sketch.</desc>
    <defs></defs>
    <g id="Symbols" stroke="none" stroke-width="1" fill="none" fill-rule="evenodd">
        <g id="player/list-icon-dark--document" fill="#FFFFFF">
            <path d="M7,4 L17,4 C18.1045695,4 19,4.8954305 19,6 L19,18 C19,19.1045695 18.1045695,20 17,20 L7,20 C5.8954305,20 5,19.1045695 5,18 L5,6 C5,4.8954305 5.8954305,4 7,4 Z M7,6 L7,18 L8,18 L8,6 L7,6 Z M12,6 L10,6 L10,18 L17,18 L17,6 L15,6 L15,11 L13.5,9.5 L12,11 L12,6 Z" id="Combined-Shape"></path>
        </g>
    </g>
</svg>