<?xml version="1.0" encoding="UTF-8"?>
<svg width="26px" height="26px" viewBox="0 0 26 26" version="1.1" xmlns="http://www.w3.org/2000/svg" xmlns:xlink="http://www.w3.org/1999/xlink">
    <!-- Generator: Sketch 48.1 (47250) - http://www.bohemiancoding.com/sketch -->
    <title>custom-icon-demo--info</title>
    <desc>Created with Sketch.</desc>
    <defs></defs>
    <g id="Editor-UI:-L" stroke="none" stroke-width="1" fill="none" fill-rule="evenodd">
        <g id="custom-icon-demo--info">
            <path d="M13,5 C15.2034533,5 17.0876301,5.7824658 18.6525834,7.34741664 C20.2175342,8.91236988 21,10.7965467 21,13 C21,15.2034533 20.2175342,17.0876301 18.6525834,18.6525822 C17.0876301,20.2175352 15.2034533,21 13,21 C10.7965467,21 8.91236988,20.2175352 7.34741784,18.6525822 C5.78246484,17.0876301 5,15.2034533 5,13 C5,10.7965467 5.78246484,8.91236988 7.34741784,7.34741664 C8.91236988,5.7824658 10.7965467,5 13,5 Z" id="Page-1" fill="#4A79E2"></path>
            <polygon id="Combined-Shape" fill="#FFFFFF" points="14 10 14 8 12 8 12 10"></polygon>
            <rect id="Rectangle" fill="#FFFFFF" x="12" y="12" width="2" height="6"></rect>
        </g>
    </g>
</svg>