<?xml version="1.0" encoding="UTF-8"?>
<svg width="98px" height="11px" viewBox="0 0 98 11" version="1.1" xmlns="http://www.w3.org/2000/svg" xmlns:xlink="http://www.w3.org/1999/xlink">
    <!-- Generator: Sketch 47 (45396) - http://www.bohemiancoding.com/sketch -->
    <title>letznav-logo-dark</title>
    <desc>Created with Sketch.</desc>
    <defs></defs>
    <g id="balloons" stroke="none" stroke-width="1" fill="none" fill-rule="evenodd">
        <g id="Group" fill="#FFFFFF">
            <path d="M53,8.90501319 L53,1.09498681 C53,0.734386939 53.0802543,0.461742348 53.2407652,0.277044855 C53.4012761,0.0923473615 53.6178526,0 53.8905013,0 C54.16315,0 54.3830247,0.0912479881 54.5501319,0.273746702 C54.7172392,0.456245416 54.8007916,0.72998938 54.8007916,1.09498681 L54.8007916,8.90501319 C54.8007916,9.27001062 54.7161398,9.54375458 54.5468338,9.7262533 C54.3775277,9.90875201 54.1587524,10 53.8905013,10 C53.6266478,10 53.41227,9.90545389 53.2473615,9.71635884 C53.082453,9.52726379 53,9.25681794 53,8.90501319 Z M60.8959992,6.78100264 L57.3735717,6.78100264 C57.3779693,7.18997566 57.4604223,7.55057012 57.6209332,7.86279683 C57.7814441,8.17502355 57.9947225,8.41028945 58.2607749,8.56860158 C58.5268272,8.72691372 58.8203599,8.8060686 59.1413817,8.8060686 C59.3568622,8.8060686 59.55365,8.78078301 59.7317511,8.73021108 C59.9098523,8.67963915 60.0824539,8.60048427 60.2495612,8.49274406 C60.4166684,8.38500386 60.5705807,8.26956966 60.7113026,8.14643799 C60.8520245,8.02330633 61.0345205,7.85620158 61.258796,7.64511873 C61.3511447,7.56596266 61.4830695,7.52638522 61.6545744,7.52638522 C61.8392719,7.52638522 61.9887866,7.5769564 62.1031232,7.67810026 C62.2174597,7.77924413 62.2746271,7.92216266 62.2746271,8.10686016 C62.2746271,8.26956985 62.2108635,8.45976144 62.0833343,8.67744063 C61.955805,8.89511982 61.7634147,9.10400076 61.5061575,9.30408971 C61.2489002,9.50417866 60.9256845,9.67018404 60.5365005,9.80211082 C60.1473165,9.9340376 59.6998715,10 59.1941522,10 C58.0375941,10 57.1383067,9.67018799 56.496263,9.01055409 C55.8542193,8.35092018 55.5332023,7.45603028 55.5332023,6.32585752 C55.5332023,5.79375284 55.6123572,5.3001342 55.7706693,4.84498681 C55.9289815,4.38983941 56.1598499,3.99956187 56.4632815,3.67414248 C56.7667131,3.34872309 57.1405,3.09916534 57.5846535,2.92546174 C58.028807,2.75175815 58.5213263,2.66490765 59.0622261,2.66490765 C59.7658356,2.66490765 60.3693915,2.81332305 60.8729121,3.11015831 C61.3764326,3.40699357 61.7535177,3.79067487 62.0041786,4.26121372 C62.2548395,4.73175257 62.380168,5.21107935 62.380168,5.69920844 C62.380168,6.15215706 62.250442,6.44568974 61.990986,6.5798153 C61.73153,6.71394086 61.366538,6.78100264 60.8959992,6.78100264 Z M57.3735717,5.7585752 L60.6387432,5.7585752 C60.5947676,5.14291689 60.4287623,4.68227945 60.1407221,4.37664908 C59.852682,4.0710187 59.4733982,3.9182058 59.0028593,3.9182058 C58.5543083,3.9182058 58.1860182,4.07321745 57.8979781,4.38324538 C57.6099379,4.69327332 57.4351376,5.15171201 57.3735717,5.7585752 Z M63.2049271,2.83641161 L63.4028163,2.83641161 L63.4028163,1.75461741 C63.4028163,1.4643785 63.4105119,1.23680821 63.4259033,1.07189974 C63.4412948,0.90699126 63.4841704,0.765172098 63.5545313,0.646437995 C63.6248923,0.523306332 63.7260346,0.423263358 63.8579614,0.346306069 C63.9898882,0.26934878 64.1372042,0.230870712 64.2999139,0.230870712 C64.528587,0.230870712 64.7352692,0.316621834 64.9199667,0.488126649 C65.0430983,0.602463193 65.1211538,0.742083608 65.1541355,0.906992084 C65.1871172,1.07190056 65.2036078,1.30606708 65.2036078,1.60949868 L65.2036078,2.83641161 L65.8632384,2.83641161 C66.1182969,2.83641161 66.312886,2.89687714 66.4470115,3.01781003 C66.5811371,3.13874291 66.6481988,3.29375455 66.6481988,3.4828496 C66.6481988,3.72471537 66.5525534,3.89401887 66.3612595,3.99076517 C66.1699657,4.08751148 65.8962217,4.13588391 65.5400194,4.13588391 L65.2036078,4.13588391 L65.2036078,7.44722955 C65.2036078,7.72867335 65.2135022,7.9452499 65.2332912,8.0969657 C65.2530802,8.2486815 65.3058501,8.37181131 65.3916025,8.46635884 C65.477355,8.56090637 65.6169754,8.60817942 65.810468,8.60817942 C65.9160094,8.60817942 66.0589279,8.58949007 66.2392279,8.55211082 C66.4195278,8.51473156 66.5602476,8.49604222 66.6613915,8.49604222 C66.8065109,8.49604222 66.9373363,8.554309 67.0538717,8.67084433 C67.170407,8.78737965 67.2286738,8.93139756 67.2286738,9.10290237 C67.2286738,9.39314129 67.070364,9.61521471 66.7537397,9.76912929 C66.4371155,9.92304387 65.9819749,10 65.3883044,10 C64.8254168,10 64.3988599,9.90545389 64.108621,9.71635884 C63.8183821,9.52726379 63.6281905,9.26561293 63.5380405,8.93139842 C63.4478906,8.59718391 63.4028163,8.15083832 63.4028163,7.59234828 L63.4028163,4.13588391 L63.1653492,4.13588391 C62.9058932,4.13588391 62.708006,4.074319 62.5716817,3.95118734 C62.4353574,3.82805567 62.3671962,3.67194466 62.3671962,3.4828496 C62.3671962,3.29375455 62.4386555,3.13874291 62.5815762,3.01781003 C62.7244968,2.89687714 62.9322784,2.83641161 63.2049271,2.83641161 Z M73.3480034,4.74274406 L70.0498504,8.43007916 L73.5788742,8.43007916 C73.8647155,8.43007916 74.0801927,8.49714093 74.2253122,8.63126649 C74.3704316,8.76539205 74.4429903,8.93799367 74.4429903,9.14907652 C74.4429903,9.35136425 74.371531,9.51627025 74.2286103,9.64379947 C74.0856896,9.77132869 73.8691131,9.83509235 73.5788742,9.83509235 L68.6976077,9.83509235 C68.354598,9.83509235 68.098444,9.76033496 67.929138,9.61081794 C67.759832,9.46130092 67.6751802,9.25681748 67.6751802,8.99736148 C67.6751802,8.8434469 67.7345464,8.68843526 67.8532805,8.5323219 C67.9720146,8.37620854 68.2182742,8.0892721 68.5920668,7.67150396 C68.9878471,7.23174802 69.3473422,6.83377487 69.6705628,6.47757256 C69.9937834,6.12137025 70.2939123,5.78826013 70.5709586,5.47823219 C70.8480048,5.16820425 71.0777739,4.90545402 71.2602726,4.68997361 C71.4427713,4.47449321 71.5889879,4.28979848 71.6989269,4.13588391 L69.0208267,4.13588391 C68.6514317,4.13588391 68.3721908,4.1029027 68.1830958,4.03693931 C67.9940007,3.97097592 67.8994546,3.79727493 67.8994546,3.51583113 C67.8994546,3.30914584 67.9709139,3.14423984 68.1138346,3.02110818 C68.2567553,2.89797652 68.4601393,2.83641161 68.7239929,2.83641161 L72.8598768,2.83641161 C73.2424645,2.83641161 73.5359971,2.89247965 73.7404837,3.00461741 C73.9449702,3.11675518 74.0472119,3.3179405 74.0472119,3.60817942 C74.0472119,3.70492573 74.0274232,3.8049687 73.9878451,3.90831135 C73.9482671,4.01165399 73.9042922,4.09630574 73.855919,4.16226913 C73.8075459,4.22823252 73.7415835,4.30848677 73.6580298,4.4030343 C73.5744762,4.49758183 73.4711351,4.61081728 73.3480034,4.74274406 Z M77.4350912,1.17414248 L81.201582,6.87335092 L81.201582,1.12137203 C81.201582,0.747579485 81.2818363,0.467239281 81.4423472,0.280343008 C81.6028581,0.0934467348 81.8194346,0 82.0920833,0 C82.3735271,0 82.5956005,0.0934467348 82.7583102,0.280343008 C82.9210199,0.467239281 83.0023736,0.747579485 83.0023736,1.12137203 L83.0023736,8.72691293 C83.0023736,9.57564189 82.6505741,10 81.9469646,10 C81.7710622,10 81.6127525,9.97471441 81.4720306,9.92414248 C81.3313087,9.87357055 81.1993839,9.79331629 81.0762522,9.68337731 C80.9531205,9.57343832 80.8387857,9.44481164 80.7332443,9.2974934 C80.6277029,9.15017516 80.522163,8.99956102 80.4166216,8.84564644 L76.7424791,3.21240106 L76.7424791,8.87862797 C76.7424791,9.24802296 76.656728,9.52726379 76.4852232,9.71635884 C76.3137184,9.90545389 76.0938437,10 75.8255926,10 C75.5485463,10 75.3264729,9.90435452 75.1593657,9.71306069 C74.9922584,9.52176685 74.908706,9.2436254 74.908706,8.87862797 L74.908706,1.4182058 C74.908706,1.10158153 74.943886,0.853123153 75.0142469,0.672823219 C75.0978005,0.474933047 75.2363216,0.313325165 75.4298142,0.187994723 C75.6233068,0.062664281 75.8321877,0 76.0564633,0 C76.2323657,0 76.3829798,0.0285837071 76.5083102,0.0857519789 C76.6336407,0.142920251 76.743578,0.219876385 76.8381255,0.316622691 C76.9326731,0.413368997 77.0294179,0.538697559 77.128363,0.692612137 C77.2273081,0.846526715 77.3295498,1.00703522 77.4350912,1.17414248 Z M88.8374825,8.98416887 C88.4021241,9.32278094 87.9810641,9.57673618 87.5742899,9.74604222 C87.1675156,9.91534825 86.7112757,10 86.2055564,10 C85.7438126,10 85.3381439,9.90875201 84.9885379,9.7262533 C84.6389319,9.54375458 84.3695854,9.29639558 84.1804904,8.98416887 C83.9913953,8.67194215 83.8968492,8.33333516 83.8968492,7.96833773 C83.8968492,7.47581108 84.0529602,7.05585046 84.365187,6.70844327 C84.6774137,6.36103608 85.1061693,6.12796893 85.6514666,6.00923483 C85.7658032,5.98284947 86.0494415,5.92348331 86.5023901,5.83113456 C86.9553387,5.73878582 87.3434175,5.65413407 87.6666381,5.57717678 C87.9898588,5.50021949 88.3405589,5.40677276 88.718749,5.29683377 C88.6967612,4.82189736 88.6011157,4.47339601 88.4318097,4.25131926 C88.2625036,4.02924251 87.9118035,3.9182058 87.3796988,3.9182058 C86.9223527,3.9182058 86.5782488,3.98196946 86.3473769,4.10949868 C86.1165051,4.2370279 85.9186179,4.42831887 85.7537094,4.68337731 C85.5888009,4.93843575 85.4722673,5.10663987 85.4041052,5.18799472 C85.335943,5.26934957 85.1897263,5.31002639 84.9654508,5.31002639 C84.7631631,5.31002639 84.5883627,5.24516336 84.4410445,5.11543536 C84.2937262,4.98570735 84.2200682,4.81970198 84.2200682,4.61741425 C84.2200682,4.30078997 84.3322043,3.99296544 84.5564798,3.6939314 C84.7807554,3.39489736 85.1303561,3.14863773 85.6052925,2.95514512 C86.0802289,2.76165251 86.6716918,2.66490765 87.3796988,2.66490765 C88.1712595,2.66490765 88.7935048,2.75835439 89.2464535,2.94525066 C89.6994021,3.13214693 90.0193197,3.42787836 90.206216,3.83245383 C90.3931123,4.23702929 90.486559,4.77352348 90.486559,5.44195251 C90.486559,5.86411821 90.4854596,6.22251392 90.4832608,6.5171504 C90.4810621,6.81178687 90.4777639,7.13940013 90.4733664,7.5 C90.4733664,7.83861207 90.5294344,8.19151092 90.6415722,8.55870712 C90.7537099,8.92590333 90.809778,9.1622686 90.809778,9.26781003 C90.809778,9.45250752 90.7229275,9.62071164 90.5492239,9.77242744 C90.3755203,9.92414324 90.1787325,10 89.9588545,10 C89.774157,10 89.591661,9.91314951 89.4113611,9.73944591 C89.2310612,9.56574232 89.0397702,9.31398582 88.8374825,8.98416887 Z M88.718749,6.37862797 C88.4548954,6.47537427 88.0712141,6.577616 87.5676936,6.6853562 C87.064173,6.79309641 86.7156717,6.87225129 86.522179,6.92282322 C86.3286864,6.97339515 86.1439917,7.07233875 85.9680893,7.21965699 C85.792187,7.36697523 85.7042371,7.57255805 85.7042371,7.83641161 C85.7042371,8.10906029 85.8075782,8.34102807 86.0142635,8.5323219 C86.2209488,8.72361573 86.4913946,8.81926121 86.8256091,8.81926121 C87.1818114,8.81926121 87.5105241,8.74120571 87.8117569,8.58509235 C88.1129897,8.42897899 88.3339637,8.22779367 88.4746856,7.98153034 C88.6373953,7.70888166 88.718749,7.26033734 88.718749,6.63588391 L88.718749,6.37862797 Z M92.7954869,3.7994723 L94.2532706,7.88918206 L95.8231914,3.62137203 C95.9463231,3.2783624 96.0672541,3.03540089 96.1859882,2.89248021 C96.3047223,2.74955953 96.4850196,2.67810026 96.7268853,2.67810026 C96.9555584,2.67810026 97.1501475,2.7550564 97.3106584,2.90897098 C97.4711693,3.06288555 97.5514236,3.24098404 97.5514236,3.44327177 C97.5514236,3.52242784 97.5371317,3.6147752 97.5085476,3.72031662 C97.4799635,3.82585805 97.4469823,3.92480165 97.409603,4.0171504 C97.3722238,4.10949914 97.3293482,4.21503898 97.280975,4.33377309 L95.5527428,8.62137203 C95.5043697,8.74450369 95.4417054,8.90061471 95.3647481,9.08970976 C95.2877908,9.27880482 95.2020397,9.4404127 95.1074922,9.57453826 C95.0129447,9.70866382 94.8964111,9.81310429 94.757888,9.8878628 C94.6193648,9.96262131 94.4511607,10 94.2532706,10 C93.9982121,10 93.794828,9.94173321 93.6431122,9.82519789 C93.4913964,9.70866257 93.3792604,9.58113526 93.3067006,9.44261214 C93.2341409,9.30408902 93.1121105,9.03034505 92.9406056,8.62137203 L91.2255661,4.37994723 C91.185988,4.2744058 91.1453112,4.16886596 91.1035344,4.06332454 C91.0617576,3.95778311 91.0265776,3.85004453 90.9979935,3.74010554 C90.9694094,3.63016656 90.9551175,3.53562045 90.9551175,3.45646438 C90.9551175,3.33333272 90.9924962,3.21130228 91.0672547,3.09036939 C91.1420132,2.96943651 91.2453543,2.87049291 91.3772811,2.79353562 C91.5092079,2.71657833 91.6521264,2.67810026 91.806041,2.67810026 C92.105075,2.67810026 92.3106579,2.76385139 92.4227956,2.9353562 C92.5349334,3.10686102 92.6591626,3.39489683 92.7954869,3.7994723 Z M1.00927734,6.43359375 L1.00927734,9 L0.143554687,9 L0.143554687,2.6015625 L2.59130859,2.6015625 C3.27392919,2.6015625 3.80419733,2.77734199 4.18212891,3.12890625 C4.56006048,3.48047051 4.74902344,3.9433565 4.74902344,4.51757812 C4.74902344,5.10058885 4.56006048,5.56567209 4.18212891,5.9128418 C3.80419733,6.2600115 3.27392919,6.43359375 2.59130859,6.43359375 L1.00927734,6.43359375 Z M1.00927734,5.75683594 L2.59130859,5.75683594 C3.02490451,5.75683594 3.34863174,5.64038202 3.5625,5.4074707 C3.77636826,5.17455938 3.88330078,4.88086115 3.88330078,4.52636719 C3.88330078,4.17187323 3.77563584,3.87597775 3.56030273,3.63867188 C3.34496963,3.401366 3.02197481,3.28271484 2.59130859,3.28271484 L1.00927734,3.28271484 L1.00927734,5.75683594 Z M5.48730469,6.57861328 C5.48730469,5.87548477 5.67773247,5.29614486 6.05859375,4.84057617 C6.43945503,4.38500749 6.9565397,4.15722656 7.60986328,4.15722656 C8.26904626,4.15722656 8.78979301,4.38427507 9.17211914,4.83837891 C9.55444527,5.29248274 9.74560547,5.87255506 9.74560547,6.57861328 L9.74560547,6.67529297 C9.74560547,7.38428089 9.55517769,7.96435321 9.17431641,8.41552734 C8.79345513,8.86670147 8.27490562,9.09228516 7.61865234,9.09228516 C6.96239906,9.09228516 6.44311715,8.86596906 6.06079102,8.41333008 C5.67846489,7.9606911 5.48730469,7.38135119 5.48730469,6.67529297 L5.48730469,6.57861328 Z M6.35302734,6.67529297 C6.35302734,7.17920174 6.45922745,7.5952132 6.67163086,7.92333984 C6.88403427,8.25146648 7.19970494,8.41552734 7.61865234,8.41552734 C8.03174035,8.41552734 8.34521377,8.25146648 8.55908203,7.92333984 C8.77295029,7.5952132 8.87988281,7.17920174 8.87988281,6.67529297 L8.87988281,6.57861328 C8.87988281,6.08056392 8.77221787,5.66601728 8.55688477,5.33496094 C8.34155166,5.00390459 8.02588099,4.83837891 7.60986328,4.83837891 C7.19677528,4.83837891 6.88403427,5.00390459 6.67163086,5.33496094 C6.45922745,5.66601728 6.35302734,6.08056392 6.35302734,6.57861328 L6.35302734,6.67529297 Z M12.0219727,7.26855469 L12.1230469,7.84423828 L12.1494141,7.84423828 L12.2724609,7.26855469 L13.2216797,4.24511719 L13.9160156,4.24511719 L14.8696289,7.26855469 L15.0058594,7.91015625 L15.0322266,7.91015625 L15.159668,7.26855469 L15.9067383,4.24511719 L16.7680664,4.24511719 L15.3881836,9 L14.6894531,9 L13.7709961,6.10400391 L13.5732422,5.29541016 L13.546875,5.29980469 L13.3579102,6.10400391 L12.4526367,9 L11.7539062,9 L10.3740234,4.24511719 L11.2353516,4.24511719 L12.0219727,7.26855469 Z M19.5893555,9.09228516 C18.9272428,9.09228516 18.4006367,8.87182838 18.0095215,8.4309082 C17.6184062,7.98998803 17.4228516,7.41797227 17.4228516,6.71484375 L17.4228516,6.52148438 C17.4228516,5.84472318 17.6242656,5.28149639 18.0270996,4.83178711 C18.4299337,4.38207783 18.9067355,4.15722656 19.4575195,4.15722656 C20.0991243,4.15722656 20.5839827,4.350584 20.9121094,4.73730469 C21.240236,5.12402537 21.4042969,5.63964521 21.4042969,6.28417969 L21.4042969,6.82470703 L18.3193359,6.82470703 L18.3061523,6.84667969 C18.3149415,7.30371322 18.4306629,7.67944189 18.6533203,7.97387695 C18.8759777,8.26831202 19.1879863,8.41552734 19.5893555,8.41552734 C19.8823257,8.41552734 20.1394032,8.37377971 20.3605957,8.2902832 C20.5817882,8.20678669 20.7729484,8.09179761 20.934082,7.9453125 L21.2724609,8.5078125 C21.1025382,8.67480552 20.8784194,8.81396429 20.6000977,8.92529297 C20.321776,9.03662165 19.9848653,9.09228516 19.5893555,9.09228516 Z M19.4575195,4.83837891 C19.167479,4.83837891 18.9199229,4.96069214 18.7148437,5.20532227 C18.5097646,5.4499524 18.3837893,5.75683409 18.3369141,6.12597656 L18.3457031,6.14794922 L20.5385742,6.14794922 L20.5385742,6.03369141 C20.5385742,5.69384596 20.4477548,5.40966911 20.2661133,5.18115234 C20.0844717,4.95263558 19.8149432,4.83837891 19.4575195,4.83837891 Z M24.6254883,5.00976562 L24.1816406,4.98339844 C23.9531239,4.98339844 23.7604988,5.03759711 23.6037598,5.14599609 C23.4470207,5.25439507 23.3261723,5.4067373 23.2412109,5.60302734 L23.2412109,9 L22.3754883,9 L22.3754883,4.24511719 L23.1489258,4.24511719 L23.2324219,4.93945312 C23.3671882,4.69335814 23.5334463,4.50146553 23.7312012,4.36376953 C23.9289561,4.22607353 24.156737,4.15722656 24.4145508,4.15722656 C24.4790042,4.15722656 24.5405271,4.16235346 24.5991211,4.17260742 C24.6577151,4.18286138 24.7060545,4.1938476 24.7441406,4.20556641 L24.6254883,5.00976562 Z M27.3500977,9.09228516 C26.687985,9.09228516 26.1613789,8.87182838 25.7702637,8.4309082 C25.3791484,7.98998803 25.1835937,7.41797227 25.1835937,6.71484375 L25.1835937,6.52148438 C25.1835937,5.84472318 25.3850078,5.28149639 25.7878418,4.83178711 C26.1906758,4.38207783 26.6674777,4.15722656 27.2182617,4.15722656 C27.8598665,4.15722656 28.3447249,4.350584 28.6728516,4.73730469 C29.0009782,5.12402537 29.1650391,5.63964521 29.1650391,6.28417969 L29.1650391,6.82470703 L26.0800781,6.82470703 L26.0668945,6.84667969 C26.0756836,7.30371322 26.1914051,7.67944189 26.4140625,7.97387695 C26.6367199,8.26831202 26.9487285,8.41552734 27.3500977,8.41552734 C27.6430679,8.41552734 27.9001454,8.37377971 28.1213379,8.2902832 C28.3425304,8.20678669 28.5336906,8.09179761 28.6948242,7.9453125 L29.0332031,8.5078125 C28.8632804,8.67480552 28.6391615,8.81396429 28.3608398,8.92529297 C28.0825181,9.03662165 27.7456074,9.09228516 27.3500977,9.09228516 Z M27.2182617,4.83837891 C26.9282212,4.83837891 26.6806651,4.96069214 26.4755859,5.20532227 C26.2705068,5.4499524 26.1445315,5.75683409 26.0976562,6.12597656 L26.1064453,6.14794922 L28.2993164,6.14794922 L28.2993164,6.03369141 C28.2993164,5.69384596 28.208497,5.40966911 28.0268555,5.18115234 C27.8452139,4.95263558 27.5756854,4.83837891 27.2182617,4.83837891 Z M29.9384766,6.71044922 C29.9384766,5.94579696 30.101805,5.32910391 30.4284668,4.86035156 C30.7551286,4.39159922 31.2128877,4.15722656 31.8017578,4.15722656 C32.0800795,4.15722656 32.3269032,4.20849558 32.5422363,4.31103516 C32.7575694,4.41357473 32.9414055,4.5629873 33.09375,4.75927734 L33.09375,2.14453125 L33.9594727,2.14453125 L33.9594727,9 L33.2519531,9 L33.1508789,8.41552734 C32.9956047,8.63818471 32.8051769,8.80664005 32.5795898,8.92089844 C32.3540028,9.03515682 32.0917984,9.09228516 31.7929687,9.09228516 C31.2128877,9.09228516 30.7587907,8.88208218 30.4306641,8.46166992 C30.1025374,8.04125766 29.9384766,7.48828468 29.9384766,6.80273438 L29.9384766,6.71044922 Z M30.8041992,6.80273438 C30.8041992,7.28320553 30.9023428,7.66772317 31.0986328,7.95629883 C31.2949229,8.24487449 31.5996073,8.38916016 32.0126953,8.38916016 C32.2705091,8.38916016 32.4873038,8.33056699 32.6630859,8.21337891 C32.8388681,8.09619082 32.9824213,7.93212996 33.09375,7.72119141 L33.09375,5.50195312 C32.9824213,5.30566308 32.8381357,5.14965878 32.6608887,5.03393555 C32.4836417,4.91821231 32.2705091,4.86035156 32.0214844,4.86035156 C31.6054667,4.86035156 31.298585,5.03173657 31.1008301,5.37451172 C30.9030752,5.71728687 30.8041992,6.16259492 30.8041992,6.71044922 L30.8041992,6.80273438 Z M41.5488281,6.80273438 C41.5488281,7.48828468 41.3840349,8.04125766 41.0544434,8.46166992 C40.7248519,8.88208218 40.2714873,9.09228516 39.6943359,9.09228516 C39.3808578,9.09228516 39.1083996,9.03149475 38.8769531,8.90991211 C38.6455067,8.78832947 38.453614,8.60888791 38.3012695,8.37158203 L38.1958008,9 L37.4882812,9 L37.4882812,2.14453125 L38.3540039,2.14453125 L38.3540039,4.80761719 C38.5034187,4.59667863 38.6887196,4.43554743 38.9099121,4.32421875 C39.1311046,4.21289007 39.389647,4.15722656 39.6855469,4.15722656 C40.2714873,4.15722656 40.728514,4.39159922 41.0566406,4.86035156 C41.3847673,5.32910391 41.5488281,5.94579696 41.5488281,6.71044922 L41.5488281,6.80273438 Z M40.6831055,6.71044922 C40.6831055,6.16552462 40.5827647,5.72094899 40.3820801,5.37670898 C40.1813955,5.03246898 39.8759786,4.86035156 39.4658203,4.86035156 C39.1992174,4.86035156 38.9743661,4.92553646 38.7912598,5.0559082 C38.6081534,5.18627995 38.4624029,5.36132703 38.3540039,5.58105469 L38.3540039,7.64208984 C38.4653326,7.87646602 38.6110831,8.05956965 38.7912598,8.19140625 C38.9714364,8.32324285 39.1992174,8.38916016 39.4746094,8.38916016 C39.881838,8.38916016 40.1850576,8.24414208 40.3842773,7.95410156 C40.5834971,7.66406105 40.6831055,7.28027583 40.6831055,6.80273438 L40.6831055,6.71044922 Z M44.0097656,7.23779297 L44.1635742,7.83544922 L44.1899414,7.83544922 L45.3588867,4.24511719 L46.3212891,4.24511719 L44.3217773,9.72949219 C44.2016596,10.0488297 44.0295421,10.3271473 43.8054199,10.5644531 C43.5812977,10.801759 43.2788105,10.9204102 42.8979492,10.9204102 C42.8276364,10.9204102 42.7382818,10.9123536 42.6298828,10.8962402 C42.5214838,10.8801269 42.4379886,10.8647462 42.3793945,10.8500977 L42.4672852,10.1689453 C42.4497069,10.1660156 42.5017084,10.1689453 42.623291,10.1777344 C42.7448737,10.1865235 42.8217772,10.190918 42.8540039,10.190918 C43.0385751,10.190918 43.1894525,10.1088875 43.3066406,9.94482422 C43.4238287,9.7807609 43.5219723,9.59912209 43.6010742,9.39990234 L43.8076172,8.90332031 L42.0410156,4.24511719 L43.0078125,4.24511719 L44.0097656,7.23779297 Z M47.3012695,9 L46.4355469,9 L46.4355469,8.11230469 L47.3012695,8.11230469 L47.3012695,9 Z M47.3012695,5.15039062 L46.4355469,5.15039062 L46.4355469,4.26269531 L47.3012695,4.26269531 L47.3012695,5.15039062 Z" id="letznav-logo"></path>
        </g>
    </g>
</svg>
