<?xml version="1.0" encoding="UTF-8"?>
<svg width="30px" height="30px" viewBox="0 0 30 30" version="1.1" xmlns="http://www.w3.org/2000/svg" xmlns:xlink="http://www.w3.org/1999/xlink">
    <!-- Generator: Sketch 48.1 (47250) - http://www.bohemiancoding.com/sketch -->
    <title>custom-icon-demo</title>
    <desc>Created with Sketch.</desc>
    <defs></defs>
    <g id="Editor-UI:-L" stroke="none" stroke-width="1" fill="none" fill-rule="evenodd">
        <g id="custom-icon-demo">
            <path d="M15,5 C17.7543166,5 20.1095377,5.97808225 22.0657292,7.9342708 C24.0219177,9.89046235 25,12.2456834 25,15 C25,17.7543166 24.0219177,20.1095377 22.0657292,22.0657277 C20.1095377,24.0219189 17.7543166,25 15,25 C12.2456834,25 9.89046235,24.0219189 7.9342723,22.0657277 C5.97808105,20.1095377 5,17.7543166 5,15 C5,12.2456834 5.97808105,9.89046235 7.9342723,7.9342708 C9.89046235,5.97808225 12.2456834,5 15,5 Z" id="Page-1" fill="#4A79E2"></path>
            <path d="M18.0588235,14.2483221 L17.1647059,15.1879195 C16.3803881,16.0335601 15.9882353,16.9731483 15.9882353,18.0067114 L14.0117647,18.0067114 L14.0117647,17.4899329 C14.0117647,16.4563698 14.4039176,15.5167815 15.1882353,14.6711409 L16.4117647,13.4026846 C16.8196088,12.9955247 17.0235294,12.5257291 17.0235294,11.9932886 C17.0235294,11.4608481 16.8196088,10.9910525 16.4117647,10.5838926 C16.0039206,10.1767328 15.5333353,9.97315436 15,9.97315436 C14.4666647,9.97315436 13.9960794,10.1767328 13.5882353,10.5838926 C13.1803912,10.9910525 12.9764706,11.4608481 12.9764706,11.9932886 L11,11.9932886 C11,10.8970867 11.3921528,9.95749842 12.1764706,9.17449664 C12.9607883,8.39149487 13.9019558,8 15,8 C16.0980442,8 17.0392117,8.39149487 17.8235294,9.17449664 C18.6078472,9.95749842 19,10.8970867 19,11.9932886 C19,12.8702501 18.6862765,13.6219219 18.0588235,14.2483221 Z M15.9882353,22 L14.0117647,22 L14.0117647,20.0268456 L15.9882353,20.0268456 L15.9882353,22 Z" id="Combined-Shape" fill="#FFFFFF"></path>
        </g>
    </g>
</svg>