<?xml version="1.0" encoding="UTF-8"?>
<svg width="96px" height="70px" viewBox="0 0 96 70" version="1.1" xmlns="http://www.w3.org/2000/svg" xmlns:xlink="http://www.w3.org/1999/xlink">
    <!-- Generator: Sketch 46.2 (44496) - http://www.bohemiancoding.com/sketch -->
    <title>workflows-icon</title>
    <desc>Created with Sketch.</desc>
    <defs>
        <path d="M51.9354354,1.35480479 L96.0501318,32.2350923 L96.0501318,32.2350923 C97.5771482,33.3040037 97.9485156,35.408419 96.8796041,36.9354354 C96.6536515,37.2582249 96.3729213,37.5389551 96.0501318,37.7649077 L51.9354354,68.6451952 L51.9354354,68.6451952 C50.7733549,69.4586516 49.2266451,69.4586516 48.0645646,68.6451952 L3.94986819,37.7649077 L3.94986819,37.7649077 C2.42285181,36.6959963 2.05148441,34.591581 3.12039587,33.0645646 C3.34634849,32.7417751 3.62707873,32.4610449 3.94986819,32.2350923 L48.0645646,1.35480479 L48.0645646,1.35480479 C49.2266451,0.541348431 50.7733549,0.541348431 51.9354354,1.35480479 Z" id="path-1"></path>
    </defs>
    <g id="Editor-UI" stroke="none" stroke-width="1" fill="none" fill-rule="evenodd">
        <g id="letzNav-start" transform="translate(-1164.000000, -118.000000)">
            <g id="workflows-icon" transform="translate(1162.000000, 118.000000)">
                <g id="Rectangle-24-Copy-8">
                    <use fill="#FFFFFF" fill-rule="evenodd" xlink:href="#path-1"></use>
                    <path stroke="#EAEAEA" stroke-width="1" d="M51.6487042,1.76442075 C50.6587838,1.07147644 49.3412162,1.07147644 48.3512958,1.76442075 L4.23659936,32.6447082 C3.96163056,32.8371864 3.72248999,33.076327 3.53001183,33.3512958 C2.61945762,34.6520875 2.93580763,36.4447376 4.23659936,37.3552918 L48.3512958,68.2355793 C49.3412162,68.9285236 50.6587838,68.9285236 51.6487042,68.2355793 L95.7634006,37.3552918 C96.0383694,37.1628136 96.27751,36.923673 96.4699882,36.6487042 C97.3805424,35.3479125 97.0641924,33.5552624 95.7634006,32.6447082 L51.6487042,1.76442075 Z"></path>
                </g>
                <polygon id="W" fill="#4A79E2" points="69 20 60.8264151 50 54.8242588 50 50.0102426 35.2057613 45.1757412 50 39.2145553 50 31 20 38.6819407 20 42.574124 35.8436214 47.4086253 20 52.6118598 20 57.425876 35.8436214 61.3385445 20"></polygon>
            </g>
        </g>
    </g>
</svg>